<?xml version="1.0" encoding="UTF-8" standalone="no"?>
<svg width="369px" height="255px" viewBox="0 0 369 255" version="1.1" xmlns="http://www.w3.org/2000/svg" xmlns:xlink="http://www.w3.org/1999/xlink" xmlns:sketch="http://www.bohemiancoding.com/sketch/ns">
    <!-- Generator: Sketch 3.3.3 (12081) - http://www.bohemiancoding.com/sketch -->
    <title>Imported Layers</title>
    <desc>Created with Sketch.</desc>
    <defs>
        <linearGradient x1="108.529113%" y1="-13.0999252%" x2="50%" y2="100%" id="linearGradient-1">
            <stop stop-color="#E95599" offset="0%"></stop>
            <stop stop-color="#F6C7DC" offset="100%"></stop>
        </linearGradient>
        <path d="M362.324,118.748 C355.824,88.748 341.824,83.748 341.824,83.748 C328.324,57.748 318.324,54.748 311.324,45.248 C304.324,35.748 295.824,25.248 284.824,23.748 C273.824,22.248 271.824,15.248 262.824,11.248 C253.824,7.248 237.324,5.248 237.324,5.248 C224.324,-4.252 209.324,2.748 209.324,2.748 C182.324,-2.252 181.824,8.248 174.324,9.248 C166.824,10.248 161.824,2.248 150.324,5.248 C138.824,8.248 125.824,17.248 125.824,17.248 C99.824,16.748 107.324,28.748 98.324,28.748 C89.324,28.748 69.324,34.748 64.824,44.248 C60.324,53.748 54.824,48.748 43.824,60.748 C32.824,72.748 30.324,81.248 30.324,81.248 C28.324,88.748 22.824,91.748 22.824,91.748 C6.824,110.248 7.824,129.748 7.824,129.748 C-4.176,142.248 1.824,156.748 1.824,156.748 C9.324,168.248 8.824,180.248 8.824,180.248 C21.824,219.248 63.824,218.248 70.824,220.748 C77.824,223.248 89.324,223.248 89.324,223.248 C93.324,232.248 102.824,240.748 102.824,240.748 C111.324,240.748 146.824,254.748 157.324,254.748 C167.824,254.748 182.824,248.748 182.824,248.748 C221.324,250.748 237.324,233.748 237.324,233.748 C260.824,236.748 256.324,227.748 264.824,227.748 C273.324,227.748 286.824,224.248 291.324,218.248 C295.824,212.248 301.824,211.748 309.324,206.748 C316.824,201.748 325.824,195.248 336.824,200.248 C347.824,205.248 353.324,200.748 353.324,200.748 C375.824,175.248 368.824,148.748 362.324,118.748 L362.324,118.748 Z M239.992,19.248 C239.992,19.248 235.324,13.249 247.324,15.915 C259.324,18.582 263.658,21.582 271.324,26.915 C278.992,32.248 283.324,30.582 284.992,30.582 C286.658,30.582 285.992,33.248 281.992,33.582 C277.992,33.915 272.992,35.248 263.992,28.248 C254.992,21.248 249.658,25.582 247.992,29.582 C246.324,33.582 248.326,41.248 243.658,41.248 C238.992,41.248 236.658,39.915 240.658,34.248 C240.658,34.248 242.992,26.248 239.992,19.248 L239.992,19.248 Z M238.658,68.248 C241.326,70.248 235.324,74.248 235.324,74.248 C230.99,74.915 229.324,75.248 222.992,81.248 C216.658,87.248 209.658,84.248 206.658,79.582 C203.658,74.915 201.658,75.582 201.658,75.582 C198.326,77.582 203.992,82.915 203.992,82.915 C206.324,84.581 209.992,85.248 209.992,95.248 C209.992,105.248 194.658,116.248 192.658,102.582 C190.658,88.915 184.992,88.915 183.658,77.915 C182.326,66.915 192.658,45.582 206.658,40.915 C220.658,36.249 240.658,42.915 236.658,47.582 C232.658,52.248 235.992,66.248 238.658,68.248 L238.658,68.248 Z M173.658,23.248 C179.658,19.582 183.324,6.581 204.992,10.915 C204.992,10.915 213.658,12.915 211.324,20.915 C211.324,20.915 207.324,27.582 212.992,27.582 C218.658,27.582 223.324,20.248 218.324,13.915 C218.324,13.915 214.658,8.915 222.324,9.248 C229.992,9.582 235.992,16.915 235.992,27.582 C235.992,27.582 238.658,37.249 227.324,32.582 C227.324,32.582 214.992,28.582 207.658,33.248 C200.324,37.915 194.992,37.915 188.658,36.248 C188.658,36.248 185.658,39.248 190.324,40.248 C190.324,40.248 197.992,43.582 193.658,44.582 C189.324,45.582 183.324,46.915 185.324,58.248 C185.324,58.248 181.324,62.248 177.992,54.248 C177.992,54.248 177.658,49.581 175.658,47.915 C173.658,46.248 170.992,49.915 173.658,55.915 C176.324,61.915 178.658,62.582 178.324,69.248 C177.992,75.915 179.326,85.248 183.658,92.248 C187.992,99.248 185.992,103.582 187.658,106.248 C189.324,108.915 199.324,115.248 197.324,123.248 C195.324,131.248 191.658,138.914 181.324,138.914 C170.992,138.914 167.658,144.248 160.992,145.914 C154.324,147.582 137.658,143.248 137.992,114.248 C137.992,114.248 138.658,103.248 129.992,86.248 C129.992,86.248 128.658,75.248 132.658,72.915 C132.658,72.915 134.658,61.915 128.324,60.915 C128.324,60.915 125.992,63.581 127.658,65.915 C129.324,68.248 128.658,71.248 126.324,73.248 C123.992,75.248 125.658,80.915 124.324,80.915 C124.324,80.915 118.658,81.915 122.324,68.582 C122.324,68.582 120.324,55.915 126.658,53.248 C132.992,50.582 139.658,46.581 146.658,31.915 C146.658,31.915 158.992,20.582 163.992,30.582 C163.992,30.582 166.658,36.249 160.992,44.582 C155.324,52.915 155.99,54.581 156.324,59.915 C156.324,59.915 146.992,67.915 146.658,72.248 C146.324,76.582 146.324,85.915 150.992,90.248 C150.992,90.248 151.658,106.915 155.658,114.582 C159.658,122.248 160.992,126.248 167.658,125.915 C167.658,125.915 169.99,124.581 162.324,118.915 C162.324,118.915 157.658,116.582 155.992,90.248 C155.992,90.248 146.324,77.582 158.324,67.248 C158.324,67.248 164.658,60.915 163.992,54.248 C163.992,54.248 164.992,46.581 169.992,43.915 C169.992,43.915 167.658,26.915 173.658,23.248 L173.658,23.248 Z M47.324,123.248 C47.324,123.248 38.324,136.582 36.99,124.582 C36.99,124.582 46.99,109.915 54.324,109.915 C61.658,109.915 69.658,123.248 65.658,137.248 C65.658,137.248 62.658,146.582 69.658,136.582 C69.658,136.582 73.324,128.248 71.658,123.915 C71.658,123.915 75.324,122.248 82.324,133.915 C89.324,145.582 95.658,147.582 102.658,148.582 C109.658,149.582 114.658,158.582 114.658,161.914 C114.658,165.248 106.658,162.582 99.324,159.582 C91.992,156.582 86.658,148.582 69.324,152.582 C51.992,156.582 41.324,134.582 53.324,124.915 C53.324,124.915 52.99,118.581 47.324,123.248 L47.324,123.248 Z M99.658,141.248 C86.324,133.915 78.324,123.248 87.324,122.582 C96.324,121.915 91.324,127.248 97.658,127.582 C103.99,127.915 93.99,121.248 91.99,115.582 C89.99,109.915 89.99,97.248 89.99,95.248 C89.99,93.248 85.99,91.581 86.324,100.248 C86.658,108.915 86.992,124.248 72.658,118.248 C72.658,118.248 63.658,115.582 66.658,100.582 C66.658,100.582 65.658,96.581 62.99,100.248 C62.99,100.248 63.324,104.582 55.99,101.915 C55.99,101.915 44.658,102.582 41.99,110.915 C41.99,110.915 36.658,116.915 38.99,109.582 C38.99,109.582 43.324,96.249 48.99,91.582 C54.658,86.915 61.658,80.582 65.99,73.915 C65.99,73.915 69.324,70.582 73.658,75.582 C77.99,80.582 81.99,81.581 78.99,93.248 C75.99,104.915 75.99,109.248 79.324,104.582 C82.658,99.915 84.658,82.915 94.658,82.248 C104.658,81.582 105.992,84.249 102.658,92.915 C99.324,101.582 102.658,103.915 105.658,96.582 C108.658,89.248 109.658,78.581 121.658,85.248 C121.658,85.248 126.324,91.915 120.324,97.915 C114.324,103.915 111.324,120.248 111.324,128.248 C111.324,136.248 112.992,148.58 99.658,141.248 L99.658,141.248 Z M97.992,72.248 C97.992,72.248 99.992,78.248 91.992,75.582 C91.992,75.582 89.324,79.249 86.658,80.915 C86.658,80.915 80.658,73.248 75.992,69.582 C75.992,69.582 69.99,68.582 71.324,65.915 C71.324,65.915 78.658,52.915 88.992,52.915 C88.992,52.915 91.99,52.248 91.324,62.248 C90.658,72.248 95.658,65.581 97.992,72.248 L97.992,72.248 Z M123.99,103.248 C128.324,97.915 131.658,101.582 130.99,106.915 C130.324,112.249 131.99,121.582 136.324,134.248 C140.658,146.914 134.99,149.582 134.99,149.582 C131.99,158.582 138.658,152.914 138.658,152.914 C139.658,148.914 144.324,144.914 144.324,144.914 C152.99,146.914 144.99,156.582 144.99,156.582 C129.658,164.582 119.324,156.582 119.324,156.582 C107.99,137.248 123.99,103.248 123.99,103.248 L123.99,103.248 Z M127.324,23.248 C132.658,23.915 137.324,20.248 137.324,20.248 C143.324,13.915 157.324,11.915 164.658,15.248 C171.99,18.582 167.324,23.915 167.324,23.915 C151.324,18.248 144.658,24.915 141.324,28.248 C137.99,31.582 140.324,40.248 127.324,44.582 C114.324,48.915 115.658,57.915 116.99,63.915 C118.324,69.915 112.99,87.582 104.99,73.248 C96.99,58.915 96.658,66.582 96.99,55.582 C97.324,44.582 110.658,47.915 110.658,47.915 C121.324,47.248 121.324,39.582 121.658,33.248 C121.992,26.915 127.324,23.248 127.324,23.248 L127.324,23.248 Z M55.992,60.915 C56.324,59.915 54.99,58.582 61.658,57.582 C68.324,56.582 69.99,50.915 69.99,50.915 C81.324,33.915 103.658,35.248 103.658,35.248 C105.658,31.915 111.324,26.915 111.324,26.915 C117.658,22.582 118.658,25.582 118.658,25.582 C116.324,26.248 115.99,30.915 115.99,30.915 C117.324,41.915 109.324,41.582 109.324,41.582 C99.99,41.248 91.324,46.248 91.324,46.248 C62.324,55.248 70.658,64.915 62.992,68.248 C55.324,71.581 55.992,60.915 55.992,60.915 L55.992,60.915 Z M32.992,95.915 C32.992,95.915 39.658,90.915 39.658,79.915 C39.658,79.915 44.324,69.581 49.658,66.915 C49.658,66.915 49.658,75.249 57.324,73.582 C57.324,73.582 57.992,77.248 51.992,80.915 C45.992,84.582 39.99,89.915 38.324,95.915 C38.324,95.915 33.992,99.582 31.992,108.582 C31.992,108.582 27.99,114.582 17.324,117.582 C17.324,117.582 21.324,103.915 32.992,95.915 L32.992,95.915 Z M28.658,118.915 C36.324,116.915 33.324,120.915 33.324,120.915 C30.324,121.915 26.658,128.582 26.658,128.582 C16.324,134.582 21.658,145.582 21.658,145.582 C21.324,160.582 11.99,153.582 11.99,153.582 C6.658,128.248 28.658,118.915 28.658,118.915 L28.658,118.915 Z M18.658,172.582 C18.658,172.582 17.992,167.248 14.658,164.914 C14.658,164.914 11.992,159.582 20.658,159.582 C20.658,159.582 30.324,156.58 29.99,150.248 C29.99,150.248 26.658,144.914 27.324,140.582 C27.324,140.582 26.658,132.248 33.658,131.248 C40.658,130.248 43.324,137.914 42.99,143.914 C42.658,149.914 51.658,155.248 57.324,155.248 C62.99,155.248 55.99,161.248 48.99,164.582 C41.99,167.914 40.324,172.914 23.658,168.582 C23.658,168.582 21.658,179.914 48.324,171.914 C48.324,171.914 54.992,169.582 57.658,165.914 C57.658,165.914 56.658,177.58 60.658,183.248 C64.658,188.914 53.324,204.914 26.658,191.582 C26.658,191.582 16.658,186.248 18.658,172.582 L18.658,172.582 Z M68.992,206.248 C68.658,217.914 43.324,209.582 34.992,200.582 C34.992,200.582 45.99,206.248 59.324,199.914 C59.324,199.914 69.324,194.58 68.992,206.248 L68.992,206.248 Z M93.658,207.582 C92.324,212.582 89.992,214.248 82.992,214.248 C75.992,214.248 71.658,213.58 74.658,204.248 C74.658,204.248 81.324,205.916 87.324,203.582 C87.324,203.582 94.992,202.582 93.658,207.582 L93.658,207.582 Z M68.324,195.914 C63.99,190.914 66.992,180.248 66.992,180.248 C57.324,165.248 67.992,157.914 67.992,157.914 C86.992,154.58 86.658,163.248 101.324,166.248 C115.99,169.248 109.992,172.248 109.992,172.248 C99.658,177.582 84.992,176.248 79.992,174.914 C74.992,173.58 69.324,173.914 75.324,177.582 C81.324,181.248 95.658,180.582 95.658,180.582 C102.658,177.914 101.992,183.914 101.992,183.914 C97.658,185.248 97.658,191.914 97.658,191.914 C92.324,203.58 68.324,195.914 68.324,195.914 L68.324,195.914 Z M291.324,203.498 C285.824,212.998 277.574,219.998 269.824,220.248 C262.074,220.498 272.574,215.498 264.574,210.498 C264.574,210.498 261.074,207.248 261.074,211.748 C261.074,211.748 265.324,216.248 260.574,219.498 C255.824,222.748 252.824,227.748 227.574,227.998 C227.574,227.998 216.824,227.748 199.824,209.248 C199.824,209.248 195.324,201.248 192.574,199.498 C192.574,199.498 190.074,199.998 191.574,203.248 C191.574,203.248 193.824,209.248 190.074,209.998 C186.324,210.748 168.574,211.748 163.824,223.248 C163.824,223.248 162.324,227.498 170.324,222.498 C178.324,217.498 179.824,214.498 189.574,214.748 C199.324,214.998 199.824,219.248 207.074,224.498 C214.324,229.748 223.824,233.998 209.824,237.498 C195.824,240.998 187.074,235.998 173.074,243.248 C159.074,250.498 154.574,247.748 153.074,245.748 C151.574,243.748 152.574,239.748 159.324,239.248 C166.074,238.748 178.824,236.748 179.074,232.248 C179.324,227.748 177.824,224.248 176.324,225.748 C174.824,227.248 176.324,233.248 171.074,232.998 C165.824,232.748 153.324,232.248 147.324,235.998 C141.324,239.748 133.074,241.248 123.324,234.748 C113.574,228.248 106.074,245.498 98.574,213.748 C98.574,213.748 98.574,202.248 104.574,197.748 C104.574,197.748 105.658,192.33 103.992,189.914 C103.992,189.914 106.324,178.582 117.992,174.248 C117.992,174.248 122.324,162.248 141.992,167.248 C141.992,167.248 150.992,167.58 152.658,156.914 C152.658,156.914 156.324,150.248 169.324,149.914 C169.324,149.914 173.992,149.248 177.992,144.914 C177.992,144.914 184.658,144.248 188.658,146.582 C192.658,148.914 193.658,141.914 195.658,139.914 C195.658,139.914 199.074,131.998 208.324,138.498 C217.574,144.998 218.324,156.998 223.574,160.998 C228.824,164.998 227.324,159.248 225.324,156.248 C223.324,153.248 218.074,140.998 217.074,138.498 C216.074,135.998 216.074,125.498 225.574,125.498 C225.574,125.498 230.574,122.248 240.324,128.748 C250.074,135.248 260.074,137.998 264.574,137.248 C264.574,137.248 269.074,135.248 262.074,134.248 C255.074,133.248 246.074,125.498 243.824,123.998 C241.574,122.498 243.074,116.498 246.824,114.998 C250.574,113.498 257.074,95.998 265.574,94.748 C265.574,94.748 269.574,94.248 271.824,92.748 C271.824,92.748 272.824,89.998 269.324,90.498 C269.324,90.498 266.824,83.748 267.074,77.498 C267.324,71.248 259.574,55.498 253.574,55.498 C253.574,55.498 251.574,56.748 254.074,59.998 C256.574,63.248 264.074,74.498 261.074,88.748 C261.074,88.748 260.574,91.998 256.324,93.248 C256.324,93.248 252.824,106.498 242.324,108.498 C231.824,110.498 238.824,118.748 231.824,119.998 C224.824,121.248 221.574,115.998 214.574,124.748 C214.574,124.748 209.824,135.748 205.074,128.998 C200.324,122.248 209.074,109.498 211.824,104.748 C214.574,99.998 218.324,88.748 231.074,86.498 C231.074,86.498 234.574,87.998 236.824,80.248 C239.074,72.498 249.824,74.998 251.074,77.998 C252.324,80.998 254.824,86.498 255.574,80.248 C255.574,80.248 255.074,71.748 248.574,70.248 C242.074,68.748 239.824,58.748 241.824,52.998 C243.824,47.248 250.074,46.498 262.574,50.248 C262.574,50.248 268.824,55.998 273.324,55.998 C277.824,55.998 274.324,52.498 272.074,51.498 C269.824,50.498 264.744,44.797 254.074,41.748 C248.824,40.248 256.324,30.248 264.324,35.998 C264.324,35.998 275.824,41.998 285.824,39.248 C285.824,39.248 297.574,37.248 300.824,46.248 C300.824,46.248 300.074,47.248 295.574,47.248 C291.074,47.248 290.324,49.998 287.824,49.748 C285.324,49.498 287.074,46.998 277.824,43.248 C268.574,39.498 273.824,45.248 276.324,47.248 C278.824,49.248 287.324,52.248 286.574,60.498 C285.824,68.748 276.324,75.248 276.324,90.998 C276.324,106.748 278.574,119.498 281.824,119.498 C285.074,119.498 282.324,116.998 281.824,109.998 C281.324,102.998 279.574,84.748 285.324,82.748 C291.074,80.748 296.824,80.498 294.574,76.998 C294.574,76.998 289.324,75.998 286.574,76.998 C286.574,76.998 284.324,76.248 290.074,70.248 C295.824,64.248 290.324,57.248 297.074,53.748 C303.824,50.248 311.074,54.498 310.824,57.498 C310.574,60.498 304.324,58.748 302.824,65.498 C301.324,72.248 296.324,82.748 305.574,97.248 C305.574,97.248 307.324,113.748 306.074,116.748 C306.074,116.748 308.824,120.248 311.324,107.248 C313.824,94.248 306.824,88.998 305.324,82.498 C303.824,75.998 306.824,64.998 310.824,64.998 C314.824,64.998 318.074,61.748 326.824,76.748 C335.574,91.748 337.074,92.498 336.824,104.748 C336.574,116.998 337.574,121.248 341.074,124.248 C342.824,125.748 339.324,133.498 335.574,129.998 C335.574,129.998 324.574,123.498 319.324,127.748 C319.324,127.748 316.574,125.748 320.074,121.498 C320.074,121.498 323.324,88.748 315.574,89.498 C307.824,90.248 319.824,90.498 315.824,113.998 C311.824,137.498 298.824,144.498 293.324,144.248 C287.824,143.998 286.824,145.248 291.574,133.748 C296.324,122.248 301.275,99.083 295.324,99.998 C292.074,100.498 292.824,102.248 292.824,107.498 C292.824,112.748 291.574,131.498 282.824,138.748 C274.074,145.998 276.824,135.748 273.574,131.998 C270.324,128.248 266.074,115.998 251.074,117.248 C251.074,117.248 249.574,121.248 254.324,121.498 C259.074,121.748 270.324,128.748 270.074,136.998 C269.824,145.248 269.324,144.748 263.074,148.748 C256.824,152.748 250.074,159.248 247.574,168.498 C245.074,177.748 229.074,182.998 214.324,181.248 C199.574,179.498 206.574,170.748 206.074,164.748 C205.574,158.748 204.824,150.998 200.324,154.748 C200.324,154.748 200.574,156.248 201.574,161.248 C202.574,166.248 198.074,163.748 197.824,169.248 C197.574,174.748 195.824,180.998 186.824,174.998 C177.824,168.998 183.824,170.498 184.574,159.748 C185.324,148.998 175.574,145.498 177.574,150.498 C179.574,155.498 181.074,155.998 178.574,163.748 C176.074,171.498 181.074,173.998 175.824,179.498 C170.574,184.998 160.074,190.498 151.824,192.998 C143.574,195.498 144.824,203.248 136.824,203.998 C128.824,204.748 132.824,194.748 125.824,194.248 C125.824,194.248 121.574,193.748 124.074,197.998 C126.574,202.248 133.574,204.998 129.324,209.998 C129.324,209.998 124.074,215.248 113.574,214.248 C113.574,214.248 110.324,218.748 120.574,217.248 C130.824,215.748 136.324,211.748 145.324,202.248 C145.324,202.248 153.324,197.248 164.574,194.248 C175.824,191.248 177.574,185.248 186.324,184.248 C195.074,183.248 200.824,182.248 211.074,186.748 C211.074,186.748 219.074,188.248 227.324,187.748 C227.324,187.748 230.324,188.998 230.324,194.998 C230.324,200.998 241.074,204.748 244.074,206.998 C247.074,209.248 243.824,221.748 246.074,222.748 C248.324,223.748 250.324,223.998 250.324,215.998 C250.324,207.998 253.074,205.748 260.574,204.498 C268.074,203.248 281.074,198.998 288.574,200.998 C288.574,200.998 293.324,197.748 284.824,195.998 C276.324,194.248 267.824,199.748 260.574,200.498 C253.324,201.248 239.324,206.998 237.074,190.748 C234.824,174.498 259.574,182.748 267.574,177.498 C267.574,177.498 270.824,174.498 265.324,174.248 C259.824,173.998 252.574,174.248 250.824,176.248 C250.824,176.248 250.824,174.998 254.824,168.498 C258.824,161.998 254.074,159.748 261.324,155.748 C268.574,151.748 275.574,147.498 280.074,146.998 C284.574,146.498 295.074,150.498 295.324,158.748 C295.574,166.998 296.824,193.998 291.324,203.498 L291.324,203.498 Z M319.324,190.582 C313.324,187.248 313.324,177.914 313.324,170.248 C313.324,162.582 308.658,165.914 308.324,171.582 C307.99,177.248 306.99,187.248 309.658,189.248 C312.324,191.248 311.658,191.914 308.324,195.914 C304.99,199.914 302.324,203.914 297.99,202.582 C297.99,202.582 302.324,199.582 300.324,165.582 C300.324,165.582 301.99,155.248 310.99,155.248 C319.99,155.248 322.324,156.582 321.658,167.582 C320.99,178.582 322.658,183.914 324.658,187.248 C326.658,190.582 325.324,193.914 319.324,190.582 L319.324,190.582 Z M333.658,188.914 C333.658,188.914 331.992,196.248 327.992,182.248 C327.992,182.248 323.992,155.248 329.658,153.248 C329.658,153.248 334.658,148.582 335.658,145.582 C336.658,142.582 334.992,142.914 330.992,146.248 C326.992,149.582 326.658,155.248 318.658,148.582 C318.658,148.582 310.99,145.58 306.324,148.248 C306.324,148.248 303.658,152.582 300.658,152.582 C300.658,152.582 296.658,147.914 303.992,144.582 C311.324,141.248 312.658,140.582 314.992,134.915 C317.324,129.248 336.324,134.248 338.992,142.582 C341.658,150.914 346.658,160.248 342.324,169.582 C337.992,178.914 333.326,177.582 333.658,188.914 L333.658,188.914 Z M346.658,193.248 C346.658,193.248 335.658,196.914 342.324,182.914 C348.992,168.914 350.658,180.582 349.324,150.582 C349.324,150.582 347.324,140.914 344.992,138.914 C342.658,136.914 344.658,131.582 347.658,131.248 C350.658,130.915 346.99,119.915 342.324,116.915 C342.324,116.915 339.658,95.915 341.324,94.915 C341.324,94.915 355.324,107.248 359.324,156.248 C359.324,156.248 360.992,189.248 346.658,193.248 L346.658,193.248 Z" id="path-2"></path>
    </defs>
    <g id="Welcome" stroke="none" stroke-width="1" fill="none" fill-rule="evenodd" sketch:type="MSPage">
        <g id="Desktop" sketch:type="MSArtboardGroup" transform="translate(-328.000000, -477.000000)">
            <g id="Imported-Layers" sketch:type="MSLayerGroup" transform="translate(328.000000, 477.000000)">
                <g>
                    <mask id="mask-3" sketch:name="Clip 2" fill="white">
                        <use xlink:href="#path-2"></use>
                    </mask>
                    <use id="Clip-2" fill="url(#linearGradient-1)" sketch:type="MSShapeGroup" xlink:href="#path-2"></use>
                    <path d="M0.06,0 L369.06,0 L369.06,255 L0.06,255 L0.06,0 Z" id="Fill-1" sketch:type="MSShapeGroup" mask="url(#mask-3)"></path>
                </g>
            </g>
        </g>
    </g>
</svg>