<?xml version="1.0" encoding="UTF-8" standalone="no"?>
<svg width="162px" height="163px" viewBox="0 0 162 163" version="1.1" xmlns="http://www.w3.org/2000/svg" xmlns:xlink="http://www.w3.org/1999/xlink" xmlns:sketch="http://www.bohemiancoding.com/sketch/ns">
    <!-- Generator: Sketch 3.3.3 (12081) - http://www.bohemiancoding.com/sketch -->
    <title>Imported Layers</title>
    <desc>Created with Sketch.</desc>
    <defs>
        <path d="M92.924,41.803 C92.924,19.086 74.508,0.67 51.79,0.67 C29.073,0.67 10.657,19.086 10.657,41.803 L0.373,41.803 L0.373,55.514 L103.207,55.514 L103.207,41.803 L92.924,41.803 M6.372,50.373 C5.426,50.373 4.658,49.605 4.658,48.659 C4.658,47.712 5.426,46.945 6.372,46.945 C7.318,46.945 8.086,47.712 8.086,48.659 C8.086,49.605 7.318,50.373 6.372,50.373 M24.368,41.803 C24.368,26.658 36.645,14.381 51.79,14.381 C66.935,14.381 79.212,26.658 79.212,41.803 L24.368,41.803" id="path-1"></path>
        <path id="path-3" d="M0.373,7.011 L0.373,1.155 C0.373,0.88 0.598,0.655 0.873,0.655 L3.801,0.655 L3.801,7.51 L0.873,7.51 C0.598,7.51 0.373,7.285 0.373,7.011"></path>
        <path id="path-5" d="M11.207,5.083 C11.207,4.226 0.924,0.798 0.924,0.798 L0.924,9.367 C0.924,9.367 11.207,5.939 11.207,5.083 L11.207,5.083 Z"></path>
        <path d="M1.924,9.367 L1.924,0.798 C1.924,0.798 12.207,4.226 12.207,5.083 C12.207,5.939 1.924,9.367 1.924,9.367 M1.924,0.798 C1.45,0.798 0.21,1.565 0.21,2.512 C0.21,3.458 1.45,4.226 1.924,4.226 L1.924,0.798 M1.924,3.369 C1.45,3.369 0.21,4.136 0.21,5.083 C0.21,6.029 1.45,6.796 1.924,6.796 L1.924,3.369 M1.924,5.939 C1.45,5.939 0.21,6.707 0.21,7.653 C0.21,8.6 1.45,9.367 1.924,9.367 L1.924,5.939" id="path-7"></path>
    </defs>
    <g id="Welcome" stroke="none" stroke-width="1" fill="none" fill-rule="evenodd" sketch:type="MSPage">
        <g id="Desktop" sketch:type="MSArtboardGroup" transform="translate(-166.000000, -1034.000000)">
            <rect id="Rectangle-6-Copy" fill="#F4F6F7" sketch:type="MSShapeGroup" x="1" y="90" width="1024" height="2721"></rect>
            <g id="Imported-Layers-+-Imported-Layers-+-Imported-Layers" sketch:type="MSLayerGroup" transform="translate(166.000000, 1033.000000)">
                <g id="Imported-Layers" transform="translate(0.000000, 1.000000)">
                    <path d="M124.866,63.586 L159.555,98.506 C160.741,93.004 161.381,87.298 161.381,81.438 C161.381,36.929 125.305,0.849 80.792,0.849 C36.283,0.849 0.199,36.929 0.199,81.438 C0.199,125.947 36.283,162.031 80.792,162.031 C83.171,162.031 85.519,161.905 87.843,161.706 L71,132.666 L124.866,63.586" id="Fill-1" fill="#3B6F68" sketch:type="MSShapeGroup"></path>
                    <path d="M159.555,98.506 L121.333,57.334 L116,78.707 L92.926,85.297 L25.946,94.942 L31.955,101.423 L32.801,113.295 L87.843,161.706 C123.321,158.628 152.204,132.58 159.555,98.506" id="Fill-2" fill="#2C534E" sketch:type="MSShapeGroup"></path>
                    <path d="M80.79,53.809 C94.021,53.809 104.785,64.573 104.785,77.803 L125.352,77.803 C125.352,53.232 105.361,33.242 80.79,33.242 C56.219,33.242 36.229,53.232 36.229,77.803 L56.796,77.803 C56.796,64.573 67.56,53.809 80.79,53.809" id="Fill-3" fill="#45413E" sketch:type="MSShapeGroup"></path>
                    <path d="M25.946,94.942 L135.635,94.942 L135.635,74.375 L25.946,74.375 L25.946,94.942 Z M35.372,86.373 C34.426,86.373 33.658,85.605 33.658,84.659 C33.658,83.712 34.426,82.945 35.372,82.945 C36.318,82.945 37.086,83.712 37.086,84.659 C37.086,85.605 36.318,86.373 35.372,86.373 L35.372,86.373 Z" id="Fill-4" fill="#45413E" sketch:type="MSShapeGroup"></path>
                    <path d="M80.79,50.381 C95.935,50.381 108.212,62.658 108.212,77.803 L121.924,77.803 C121.924,55.086 103.508,36.67 80.79,36.67 C58.073,36.67 39.657,55.086 39.657,77.803 L53.368,77.803 C53.368,62.658 65.645,50.381 80.79,50.381" id="Fill-5" fill="#BFAA9F" sketch:type="MSShapeGroup"></path>
                    <path d="M80.79,36.67 C58.647,36.67 40.59,54.167 39.692,76.09 L41.407,76.09 C42.304,55.113 59.593,38.384 80.79,38.384 C101.987,38.384 119.276,55.113 120.173,76.09 L121.889,76.09 C121.865,75.514 121.83,74.944 121.783,74.376 C120.04,53.263 102.353,36.67 80.79,36.67" id="Fill-6" fill="#CEBEB6" sketch:type="MSShapeGroup"></path>
                    <path d="M79.933,34.956 L81.647,34.956 L81.647,41.812 L79.933,41.812 L79.933,34.956 Z" id="Fill-7" fill="#45413E" sketch:type="MSShapeGroup"></path>
                    <path d="M37.943,76.09 L44.799,76.09 L44.799,77.804 L37.943,77.804 L37.943,76.09 Z" id="Fill-8" fill="#45413E" sketch:type="MSShapeGroup"></path>
                    <path d="M116.782,76.09 L123.638,76.09 L123.638,77.804 L116.782,77.804 L116.782,76.09 Z" id="Fill-9" fill="#45413E" sketch:type="MSShapeGroup"></path>
                    <path d="M46.825,65.866 L46.295,67.496 L39.775,65.378 L40.305,63.748 L46.825,65.866" id="Fill-10" fill="#45413E" sketch:type="MSShapeGroup"></path>
                    <path d="M69.954,41.678 L68.323,42.208 L66.735,37.318 L68.365,36.788 L69.954,41.678" id="Fill-11" fill="#45413E" sketch:type="MSShapeGroup"></path>
                    <path d="M59.321,46.795 L57.934,47.802 L54.912,43.643 L56.298,42.636 L59.321,46.795" id="Fill-12" fill="#45413E" sketch:type="MSShapeGroup"></path>
                    <path d="M50.789,54.947 L49.782,56.334 L45.622,53.312 L46.63,51.925 L50.789,54.947" id="Fill-13" fill="#45413E" sketch:type="MSShapeGroup"></path>
                    <path d="M114.756,65.866 L115.285,67.496 L121.805,65.378 L121.276,63.748 L114.756,65.866" id="Fill-14" fill="#45413E" sketch:type="MSShapeGroup"></path>
                    <path d="M91.627,41.678 L93.257,42.208 L94.846,37.318 L93.216,36.788 L91.627,41.678" id="Fill-15" fill="#45413E" sketch:type="MSShapeGroup"></path>
                    <path d="M102.26,46.795 L103.646,47.802 L106.668,43.643 L105.282,42.636 L102.26,46.795" id="Fill-16" fill="#45413E" sketch:type="MSShapeGroup"></path>
                    <path d="M110.791,54.947 L111.798,56.334 L115.958,53.312 L114.951,51.925 L110.791,54.947" id="Fill-17" fill="#45413E" sketch:type="MSShapeGroup"></path>
                    <path d="M29.373,91.514 L132.206,91.514 L132.206,77.803 L29.373,77.803 L29.373,91.514 Z M35.372,86.373 C34.426,86.373 33.658,85.605 33.658,84.659 C33.658,83.712 34.426,82.945 35.372,82.945 C36.318,82.945 37.086,83.712 37.086,84.659 C37.086,85.605 36.318,86.373 35.372,86.373 L35.372,86.373 Z" id="Fill-18" fill="#BFAA9F" sketch:type="MSShapeGroup"></path>
                    <path d="M35.372,81.231 C33.479,81.231 31.944,82.766 31.944,84.659 C31.944,86.552 33.479,88.087 35.372,88.087 C37.265,88.087 38.8,86.552 38.8,84.659 C38.8,82.766 37.265,81.231 35.372,81.231 L35.372,81.231 Z M35.372,86.373 C34.426,86.373 33.658,85.605 33.658,84.659 C33.658,83.712 34.426,82.945 35.372,82.945 C36.319,82.945 37.086,83.712 37.086,84.659 C37.086,85.605 36.319,86.373 35.372,86.373 L35.372,86.373 Z" id="Fill-19" fill="#45413E" sketch:type="MSShapeGroup"></path>
                    <path d="M29.373,77.803 L41.37,77.803 L41.37,79.517 L29.373,79.517 L29.373,77.803 Z" id="Fill-20" fill="#CEBEB6" sketch:type="MSShapeGroup"></path>
                    <path d="M120.21,79.517 L132.207,79.517 L132.207,77.803 L120.21,77.803 L120.21,79.517 Z" id="Fill-21" fill="#CEBEB6" sketch:type="MSShapeGroup"></path>
                    <path d="M53.368,79.517 L108.212,79.517 L108.212,77.803 L53.368,77.803 L53.368,79.517 Z" id="Fill-22" fill="#CEBEB6" sketch:type="MSShapeGroup"></path>
                    <path d="M29.373,89.801 L132.206,89.801 L132.206,91.515 L29.373,91.515 L29.373,89.801 Z" id="Fill-23" fill="#A49289" sketch:type="MSShapeGroup"></path>
                    <g id="Group-46" transform="translate(29.000000, 36.000000)">
                        <mask id="mask-2" sketch:name="Clip 25" fill="white">
                            <use xlink:href="#path-1"></use>
                        </mask>
                        <g id="Clip-25"></g>
                        <path d="M19.387,57.42 C19.387,57.42 19.647,57.203 20.139,56.819 C23.583,54.127 38.348,43.358 52.907,43.367 C59.075,43.37 65.197,45.283 70.466,50.55 C70.564,50.647 70.722,50.647 70.82,50.55 C70.917,50.452 70.917,50.294 70.82,50.196 C65.457,44.83 59.176,42.865 52.907,42.867 C35.996,42.88 19.088,57.028 19.066,57.036 C18.96,57.125 18.946,57.282 19.034,57.389 C19.123,57.495 19.28,57.509 19.387,57.42" id="Fill-24" fill="#45413E" sketch:type="MSShapeGroup" mask="url(#mask-2)"></path>
                        <path d="M31.377,57.425 C31.377,57.425 31.516,57.317 31.786,57.122 C33.673,55.758 41.873,50.285 51.33,50.289 C56.735,50.292 62.548,52.06 67.895,57.405 C67.993,57.503 68.151,57.503 68.249,57.405 C68.347,57.308 68.347,57.149 68.249,57.052 C62.813,51.612 56.843,49.787 51.33,49.789 C40.302,49.796 31.09,57.02 31.069,57.032 C30.961,57.117 30.941,57.274 31.027,57.382 C31.112,57.491 31.269,57.51 31.378,57.425 L31.377,57.425" id="Fill-26" fill="#45413E" sketch:type="MSShapeGroup" mask="url(#mask-2)"></path>
                        <path d="M10.839,52.258 C10.839,52.257 11.086,51.996 11.568,51.53 C14.937,48.265 29.643,35.191 48.362,35.198 C48.5,35.198 48.612,35.086 48.612,34.948 C48.612,34.81 48.5,34.698 48.362,34.698 C26.695,34.708 10.496,51.901 10.475,51.915 C10.38,52.015 10.385,52.174 10.485,52.268 C10.586,52.363 10.744,52.359 10.839,52.258" id="Fill-27" fill="#45413E" sketch:type="MSShapeGroup" mask="url(#mask-2)"></path>
                        <path d="M71.268,40.183 C71.275,40.198 72.265,42.66 74.385,45.134 C76.502,47.606 79.772,50.104 84.311,50.104 C88.666,50.103 94.129,47.807 100.813,41.123 C100.91,41.026 100.91,40.867 100.813,40.77 C100.715,40.672 100.557,40.672 100.459,40.77 C93.826,47.402 88.481,49.605 84.311,49.604 C79.967,49.604 76.832,47.219 74.764,44.809 C73.732,43.605 72.972,42.398 72.471,41.494 C72.221,41.042 72.035,40.666 71.913,40.403 C71.79,40.141 71.732,39.996 71.732,39.996 C71.68,39.868 71.535,39.806 71.407,39.858 C71.278,39.909 71.216,40.055 71.268,40.183" id="Fill-28" fill="#45413E" sketch:type="MSShapeGroup" mask="url(#mask-2)"></path>
                        <path d="M86.947,54.049 L86.929,53.847 L86.929,54.05 L86.947,54.049 L86.929,53.847 L86.929,54.05 C87.1,54.049 91.616,54.039 96.122,52.518 C98.375,51.756 100.629,50.617 102.331,48.893 C104.034,47.17 105.173,44.852 105.171,41.803 C105.171,41.665 105.059,41.553 104.921,41.553 C104.783,41.553 104.671,41.665 104.671,41.803 C104.668,44.727 103.597,46.894 101.975,48.541 C99.543,51.01 95.839,52.276 92.709,52.909 C89.581,53.543 87.035,53.551 86.929,53.55 L86.903,53.552 C86.765,53.564 86.664,53.685 86.676,53.823 C86.688,53.96 86.81,54.062 86.947,54.05 L86.947,54.049" id="Fill-29" fill="#45413E" sketch:type="MSShapeGroup" mask="url(#mask-2)"></path>
                        <path d="M49.253,53.191 C49.254,53.191 49.478,53.161 49.867,53.129 C50.255,53.098 50.803,53.066 51.438,53.066 C53.4,53.06 56.18,53.385 57.612,54.834 C57.71,54.932 57.868,54.932 57.966,54.834 C58.063,54.737 58.063,54.578 57.966,54.481 C56.321,52.852 53.447,52.573 51.438,52.567 C50.136,52.567 49.193,52.695 49.186,52.696 C49.049,52.714 48.953,52.84 48.972,52.977 C48.99,53.114 49.116,53.21 49.253,53.191" id="Fill-30" fill="#45413E" sketch:type="MSShapeGroup" mask="url(#mask-2)"></path>
                        <path d="M24.514,48.005 C24.514,48.005 24.696,47.874 25.045,47.642 C27.487,46.011 38.021,39.477 49.219,39.482 C49.357,39.482 49.469,39.37 49.469,39.233 C49.469,39.094 49.357,38.983 49.219,38.983 C36.203,38.99 24.243,47.59 24.222,47.599 C24.11,47.679 24.084,47.836 24.165,47.948 C24.245,48.06 24.401,48.086 24.514,48.005" id="Fill-31" fill="#45413E" sketch:type="MSShapeGroup" mask="url(#mask-2)"></path>
                        <path d="M6.549,46.265 C6.549,46.265 6.61,46.204 6.733,46.086 C8.588,44.315 24.264,30.051 46.648,30.056 C46.787,30.056 46.898,29.944 46.898,29.806 C46.898,29.668 46.787,29.556 46.648,29.556 C22.536,29.562 6.217,45.894 6.195,45.911 C6.098,46.009 6.098,46.167 6.195,46.265 C6.293,46.362 6.451,46.362 6.549,46.265" id="Fill-32" fill="#45413E" sketch:type="MSShapeGroup" mask="url(#mask-2)"></path>
                        <path d="M3.658,48.454 C3.653,48.458 2.36,49.359 1.06,50.572 C0.41,51.178 -0.243,51.862 -0.741,52.558 C-1.235,53.255 -1.587,53.965 -1.59,54.657 C-1.59,54.796 -1.478,54.908 -1.34,54.908 C-1.202,54.908 -1.09,54.796 -1.09,54.657 C-1.094,54.145 -0.803,53.502 -0.334,52.849 C0.367,51.866 1.44,50.863 2.335,50.113 C2.783,49.738 3.186,49.424 3.477,49.206 C3.768,48.987 3.944,48.864 3.944,48.864 C4.057,48.785 4.085,48.629 4.006,48.516 C3.927,48.403 3.771,48.375 3.658,48.454" id="Fill-33" fill="#45413E" sketch:type="MSShapeGroup" mask="url(#mask-2)"></path>
                        <path d="M79.844,41.912 C79.854,41.931 80.21,42.668 81.037,43.411 C81.862,44.153 83.172,44.898 85.04,44.896 C87.834,44.893 91.82,43.258 97.385,37.695 C97.483,37.598 97.483,37.439 97.385,37.342 C97.287,37.244 97.129,37.244 97.032,37.342 C91.513,42.862 87.627,44.399 85.04,44.396 C83.307,44.395 82.131,43.718 81.371,43.039 C80.992,42.699 80.721,42.359 80.545,42.105 C80.457,41.978 80.393,41.873 80.352,41.801 L80.307,41.719 L80.295,41.695 C80.235,41.57 80.085,41.518 79.961,41.578 C79.836,41.638 79.784,41.787 79.844,41.912" id="Fill-34" fill="#45413E" sketch:type="MSShapeGroup" mask="url(#mask-2)"></path>
                        <path d="M76.447,34.248 C76.467,34.264 79.9,38.542 85.124,38.554 C87.734,38.556 90.764,37.463 93.957,34.268 C94.055,34.17 94.055,34.012 93.957,33.914 C93.86,33.816 93.701,33.816 93.604,33.914 C90.476,37.038 87.591,38.052 85.124,38.054 C82.656,38.055 80.582,37.028 79.123,35.993 C78.394,35.476 77.819,34.959 77.429,34.572 C77.233,34.378 77.084,34.217 76.984,34.105 C76.884,33.993 76.836,33.934 76.836,33.934 C76.749,33.826 76.592,33.809 76.484,33.896 C76.377,33.983 76.36,34.141 76.447,34.248" id="Fill-35" fill="#45413E" sketch:type="MSShapeGroup" mask="url(#mask-2)"></path>
                        <path d="M9.626,29.986 C9.649,30.006 13.079,33.326 18.757,33.329 C22.85,33.331 28.083,31.589 33.971,25.698 C34.069,25.6 34.069,25.442 33.971,25.345 C33.873,25.247 33.715,25.247 33.618,25.345 C27.793,31.166 22.704,32.827 18.757,32.829 C16.019,32.829 13.82,32.025 12.305,31.222 C11.547,30.82 10.961,30.418 10.566,30.118 C10.369,29.968 10.219,29.844 10.12,29.758 C10.02,29.671 9.974,29.626 9.974,29.626 C9.875,29.53 9.716,29.533 9.62,29.632 C9.524,29.731 9.527,29.89 9.626,29.986" id="Fill-36" fill="#45413E" sketch:type="MSShapeGroup" mask="url(#mask-2)"></path>
                        <path d="M81.534,12.65 C81.534,12.654 81.413,14.408 81.413,16.892 C81.414,19.9 81.588,23.975 82.376,27.323 C82.771,28.998 83.316,30.493 84.09,31.591 C84.859,32.688 85.894,33.396 87.196,33.393 C88.795,33.388 90.712,32.367 93.1,29.983 C93.198,29.885 93.198,29.727 93.1,29.629 C93.003,29.532 92.845,29.532 92.747,29.629 C90.402,31.977 88.567,32.899 87.196,32.893 C86.084,32.89 85.22,32.317 84.499,31.303 C83.423,29.785 82.762,27.296 82.388,24.634 C82.012,21.971 81.913,19.133 81.913,16.892 C81.913,15.658 81.943,14.605 81.973,13.861 C82.003,13.117 82.033,12.685 82.033,12.684 C82.042,12.546 81.938,12.427 81.8,12.418 C81.663,12.408 81.543,12.512 81.534,12.65" id="Fill-37" fill="#45413E" sketch:type="MSShapeGroup" mask="url(#mask-2)"></path>
                        <path d="M77.745,23.765 C77.745,23.764 77.692,23.461 77.612,22.911 C77.372,21.262 76.892,17.416 76.892,13.096 C76.884,7.334 77.766,0.737 81.103,-2.581 C81.201,-2.679 81.201,-2.837 81.103,-2.935 C81.005,-3.032 80.847,-3.032 80.75,-2.935 C77.231,0.602 76.399,7.288 76.392,13.096 C76.392,18.904 77.251,23.842 77.252,23.85 C77.276,23.986 77.405,24.077 77.541,24.054 C77.677,24.03 77.768,23.901 77.745,23.765" id="Fill-38" fill="#45413E" sketch:type="MSShapeGroup" mask="url(#mask-2)"></path>
                        <path d="M12.337,16.343 C12.345,16.344 16.124,16.854 21.081,16.854 C25.791,16.853 31.562,16.396 36.19,14.584 C38.504,13.677 40.536,12.429 41.995,10.714 C43.454,9.001 44.329,6.818 44.328,4.098 C44.328,3.96 44.216,3.848 44.078,3.848 C43.94,3.848 43.828,3.96 43.828,4.098 C43.826,6.711 43,8.759 41.614,10.39 C39.536,12.836 36.165,14.338 32.425,15.216 C28.686,16.096 24.588,16.354 21.081,16.354 C18.619,16.354 16.448,16.227 14.894,16.1 C14.116,16.037 13.493,15.974 13.065,15.926 C12.636,15.879 12.405,15.847 12.404,15.847 C12.267,15.829 12.141,15.925 12.123,16.062 C12.104,16.198 12.2,16.324 12.337,16.343" id="Fill-39" fill="#45413E" sketch:type="MSShapeGroup" mask="url(#mask-2)"></path>
                        <path d="M18.336,12.058 C18.344,12.059 19.756,12.251 21.811,12.251 C24.552,12.25 28.435,11.913 31.668,10.298 C34.903,8.692 37.481,5.744 37.472,0.67 C37.472,0.532 37.36,0.42 37.222,0.42 C37.084,0.42 36.972,0.532 36.972,0.67 C36.963,5.567 34.556,8.285 31.445,9.851 C28.332,11.41 24.51,11.753 21.811,11.751 C20.799,11.751 19.945,11.704 19.345,11.656 C18.745,11.609 18.404,11.562 18.403,11.562 C18.266,11.544 18.14,11.64 18.122,11.776 C18.103,11.913 18.199,12.039 18.336,12.058" id="Fill-40" fill="#45413E" sketch:type="MSShapeGroup" mask="url(#mask-2)"></path>
                        <path d="M58.403,-3.676 C58.4,-3.661 57.845,-1.456 57.845,2.048 C57.843,8.145 59.532,18.194 68.752,27.412 C68.85,27.51 69.008,27.51 69.106,27.412 C69.203,27.314 69.203,27.156 69.106,27.059 C59.999,17.95 58.346,8.058 58.345,2.048 C58.345,0.322 58.481,-1.082 58.618,-2.053 C58.686,-2.538 58.754,-2.915 58.805,-3.17 C58.856,-3.425 58.888,-3.553 58.888,-3.554 C58.922,-3.688 58.841,-3.823 58.707,-3.857 C58.573,-3.891 58.437,-3.81 58.403,-3.676" id="Fill-41" fill="#45413E" sketch:type="MSShapeGroup" mask="url(#mask-2)"></path>
                        <path d="M64.403,0.734 C64.404,0.737 65.332,4.259 66.548,7.789 C67.157,9.554 67.836,11.321 68.513,12.659 C68.852,13.328 69.189,13.891 69.528,14.3 C69.867,14.702 70.209,14.986 70.63,14.995 C71.009,14.995 71.319,14.728 71.542,14.314 C71.886,13.682 72.14,12.624 72.324,10.968 C72.505,9.314 72.607,7.068 72.607,4.098 C72.607,3.96 72.495,3.848 72.357,3.848 C72.219,3.848 72.107,3.96 72.107,4.098 C72.107,8.042 71.926,10.695 71.624,12.341 C71.474,13.163 71.292,13.733 71.104,14.073 C70.91,14.419 70.753,14.496 70.63,14.495 C70.483,14.504 70.212,14.348 69.913,13.981 C69.386,13.349 68.79,12.181 68.215,10.803 C67.35,8.733 66.517,6.181 65.901,4.149 C65.593,3.133 65.339,2.247 65.162,1.615 C64.985,0.983 64.886,0.607 64.886,0.606 C64.851,0.473 64.714,0.393 64.581,0.428 C64.447,0.463 64.367,0.6 64.403,0.734" id="Fill-42" fill="#45413E" sketch:type="MSShapeGroup" mask="url(#mask-2)"></path>
                        <path d="M44.298,17.071 C44.298,17.069 44.637,16.444 45.203,15.5 C46.051,14.084 47.41,11.959 48.878,10.198 C49.611,9.318 50.373,8.53 51.103,7.97 C51.832,7.407 52.528,7.085 53.103,7.088 C53.472,7.09 53.8,7.207 54.119,7.496 C54.596,7.928 55.036,8.779 55.341,10.178 C55.647,11.576 55.825,13.511 55.825,16.095 C55.825,16.233 55.937,16.345 56.075,16.345 C56.213,16.345 56.325,16.233 56.325,16.095 C56.324,12.619 56.01,10.285 55.464,8.786 C55.19,8.036 54.856,7.492 54.456,7.126 C54.058,6.76 53.587,6.586 53.103,6.588 C52.093,6.596 51.057,7.274 50.023,8.236 C46.936,11.132 43.866,16.823 43.858,16.833 C43.792,16.954 43.837,17.106 43.959,17.172 C44.08,17.237 44.232,17.192 44.298,17.071" id="Fill-43" fill="#45413E" sketch:type="MSShapeGroup" mask="url(#mask-2)"></path>
                        <path d="M66.117,15.304 C66.127,15.321 68.685,24.763 73.894,29.983 C73.992,30.08 74.15,30.08 74.248,29.983 C74.345,29.885 74.345,29.727 74.248,29.629 C71.715,27.098 69.794,23.479 68.516,20.495 C67.877,19.004 67.397,17.671 67.078,16.712 C66.918,16.233 66.798,15.847 66.718,15.581 C66.639,15.316 66.6,15.173 66.599,15.172 C66.563,15.039 66.426,14.96 66.293,14.997 C66.159,15.033 66.081,15.171 66.117,15.304" id="Fill-44" fill="#45413E" sketch:type="MSShapeGroup" mask="url(#mask-2)"></path>
                        <path d="M12.259,23.174 C12.279,23.183 15.369,24.729 19.602,24.73 C23.128,24.732 27.457,23.646 31.4,19.699 C31.498,19.602 31.498,19.444 31.4,19.346 C31.303,19.248 31.144,19.248 31.047,19.346 C27.2,23.19 23.03,24.228 19.602,24.23 C17.547,24.23 15.762,23.853 14.493,23.476 C13.859,23.287 13.354,23.099 13.008,22.958 C12.836,22.888 12.703,22.829 12.614,22.789 L12.482,22.727 C12.359,22.665 12.209,22.715 12.147,22.839 C12.085,22.962 12.135,23.112 12.259,23.174" id="Fill-45" fill="#45413E" sketch:type="MSShapeGroup" mask="url(#mask-2)"></path>
                    </g>
                    <path d="M28.446,99.227 L36.229,99.227 L36.229,112.938 L28.446,112.938 C27.065,112.938 25.946,111.819 25.946,110.438 L25.946,101.727 C25.946,100.346 27.065,99.227 28.446,99.227" id="Fill-47" fill="#45413E" sketch:type="MSShapeGroup"></path>
                    <path d="M29.373,109.011 L29.373,103.155 C29.373,102.88 29.598,102.655 29.873,102.655 L32.801,102.655 L32.801,109.51 L29.873,109.51 C29.598,109.51 29.373,109.285 29.373,109.011" id="Fill-48" fill="#D4B3B3" sketch:type="MSShapeGroup"></path>
                    <path d="M31.087,104.369 L32.801,104.369 L32.801,107.796 L31.087,107.796 L31.087,104.369 Z" id="Fill-49" fill="#B69A9A" sketch:type="MSShapeGroup"></path>
                    <g id="Group-53" transform="translate(29.000000, 102.000000)">
                        <mask id="mask-4" sketch:name="Clip 51" fill="white">
                            <use xlink:href="#path-3"></use>
                        </mask>
                        <g id="Clip-51"></g>
                        <path d="M3.801,0.655 L0.873,0.655 C0.598,0.655 0.373,0.88 0.373,1.155 L0.373,2.369 L3.801,2.369 L3.801,0.655" id="Fill-50" fill="#DEC5C5" sketch:type="MSShapeGroup" mask="url(#mask-4)"></path>
                        <path d="M3.801,5.796 L0.373,5.796 L0.373,7.011 C0.373,7.285 0.598,7.51 0.873,7.51 L3.801,7.51 L3.801,5.796" id="Fill-52" fill="#B69A9A" sketch:type="MSShapeGroup" mask="url(#mask-4)"></path>
                    </g>
                    <path d="M32.801,113.295 L32.801,98.87 C32.801,98.595 33.026,98.37 33.301,98.37 L43.085,98.37 L43.085,113.795 L33.301,113.795 C33.026,113.795 32.801,113.57 32.801,113.295" id="Fill-54" fill="#45413E" sketch:type="MSShapeGroup"></path>
                    <path d="M36.229,101.798 L39.657,101.798 L39.657,110.368 L36.229,110.368 L36.229,101.798 Z" id="Fill-55" fill="#E0DEDE" sketch:type="MSShapeGroup"></path>
                    <path d="M37.943,103.512 L39.657,103.512 L39.657,108.654 L37.943,108.654 L37.943,103.512 Z" id="Fill-56" fill="#F9F9F9" sketch:type="MSShapeGroup"></path>
                    <path d="M36.229,101.798 L39.657,101.798 L39.657,103.512 L36.229,103.512 L36.229,101.798 Z" id="Fill-57" fill="#F9F9F9" sketch:type="MSShapeGroup"></path>
                    <path d="M36.229,110.367 L39.657,110.367 L39.657,108.653 L36.229,108.653 L36.229,110.367 Z" id="Fill-58" fill="#C0BFBF" sketch:type="MSShapeGroup"></path>
                    <path d="M37.943,104.369 C37.47,104.369 37.086,103.985 37.086,103.512 C37.086,103.038 37.47,102.655 37.943,102.655 C38.416,102.655 38.8,103.038 38.8,103.512 C38.8,103.985 38.416,104.369 37.943,104.369" id="Fill-59" fill="#45413E" sketch:type="MSShapeGroup"></path>
                    <path d="M37.943,106.939 C37.47,106.939 37.086,106.556 37.086,106.083 C37.086,105.609 37.47,105.226 37.943,105.226 C38.416,105.226 38.8,105.609 38.8,106.083 C38.8,106.556 38.416,106.939 37.943,106.939" id="Fill-60" fill="#45413E" sketch:type="MSShapeGroup"></path>
                    <path d="M37.943,109.51 C37.47,109.51 37.086,109.127 37.086,108.653 C37.086,108.18 37.47,107.796 37.943,107.796 C38.416,107.796 38.8,108.18 38.8,108.653 C38.8,109.127 38.416,109.51 37.943,109.51" id="Fill-61" fill="#45413E" sketch:type="MSShapeGroup"></path>
                    <path d="M135.635,106.083 C135.635,102.682 121.924,98.37 121.924,98.37 L39.657,98.37 L39.657,113.795 L121.924,113.795 C121.924,113.795 135.635,109.483 135.635,106.083" id="Fill-62" fill="#45413E" sketch:type="MSShapeGroup"></path>
                    <path d="M43.085,101.798 L121.924,101.798 L121.924,110.368 L43.085,110.368 L43.085,101.798 Z" id="Fill-63" fill="#758B74" sketch:type="MSShapeGroup"></path>
                    <path d="M43.085,103.512 L121.924,103.512 L121.924,105.226 L43.085,105.226 L43.085,103.512 Z" id="Fill-64" fill="#45413E" sketch:type="MSShapeGroup"></path>
                    <path d="M43.085,106.939 L121.924,106.939 L121.924,108.653 L43.085,108.653 L43.085,106.939 Z" id="Fill-65" fill="#45413E" sketch:type="MSShapeGroup"></path>
                    <path d="M118.496,108.653 L43.085,108.653 L43.085,110.367 L119.016,110.367 C118.695,109.872 118.496,109.291 118.496,108.653" id="Fill-66" fill="#647764" sketch:type="MSShapeGroup"></path>
                    <path d="M119.016,101.798 L43.085,101.798 L43.085,103.512 L118.496,103.512 C118.496,102.874 118.695,102.293 119.016,101.798" id="Fill-67" fill="#869B84" sketch:type="MSShapeGroup"></path>
                    <path d="M118.496,106.083 L43.085,106.083 L43.085,106.939 L118.62,106.939 C118.54,106.668 118.496,106.382 118.496,106.083" id="Fill-68" fill="#869B84" sketch:type="MSShapeGroup"></path>
                    <path d="M132.207,106.083 C132.207,105.226 121.924,101.798 121.924,101.798 L121.924,110.367 C121.924,110.367 132.207,106.939 132.207,106.083" id="Fill-69" fill="#BFAA9F" sketch:type="MSShapeGroup"></path>
                    <path d="M121.924,106.939 C120.434,106.939 118.496,105.498 118.496,103.512 C118.496,101.526 120.434,100.084 121.924,100.084 L121.924,106.939" id="Fill-70" fill="#45413E" sketch:type="MSShapeGroup"></path>
                    <path d="M121.924,109.51 C120.434,109.51 118.496,108.068 118.496,106.083 C118.496,104.097 120.434,102.655 121.924,102.655 L121.924,109.51" id="Fill-71" fill="#45413E" sketch:type="MSShapeGroup"></path>
                    <path d="M121.924,105.226 C121.45,105.226 120.21,104.458 120.21,103.512 C120.21,102.565 121.45,101.798 121.924,101.798 L121.924,105.226" id="Fill-72" fill="#BFAA9F" sketch:type="MSShapeGroup"></path>
                    <path d="M121.924,112.081 C120.434,112.081 118.496,110.639 118.496,108.653 C118.496,106.667 120.434,105.226 121.924,105.226 L121.924,112.081" id="Fill-73" fill="#45413E" sketch:type="MSShapeGroup"></path>
                    <path d="M121.924,107.796 C121.45,107.796 120.21,107.029 120.21,106.083 C120.21,105.136 121.45,104.369 121.924,104.369 L121.924,107.796" id="Fill-74" fill="#BFAA9F" sketch:type="MSShapeGroup"></path>
                    <path d="M121.924,110.367 C121.45,110.367 120.21,109.6 120.21,108.653 C120.21,107.707 121.45,106.939 121.924,106.939 L121.924,110.367" id="Fill-75" fill="#BFAA9F" sketch:type="MSShapeGroup"></path>
                    <g id="Group-80" transform="translate(121.000000, 101.000000)">
                        <mask id="mask-6" sketch:name="Clip 77" fill="white">
                            <use xlink:href="#path-5"></use>
                        </mask>
                        <g id="Clip-77"></g>
                        <path d="M7.779,0.798 L11.207,0.798 L11.207,9.368 L7.779,9.368 L7.779,0.798 Z" id="Fill-76" fill="#666360" sketch:type="MSShapeGroup" mask="url(#mask-6)"></path>
                        <path d="M6.065,0.798 L7.779,0.798 L7.779,9.368 L6.065,9.368 L6.065,0.798 Z" id="Fill-78" fill="#45413E" sketch:type="MSShapeGroup" mask="url(#mask-6)"></path>
                        <path d="M11.207,5.083 L7.779,5.083 L7.779,6.885 C9.667,6.131 11.207,5.414 11.207,5.083" id="Fill-79" fill="#585552" sketch:type="MSShapeGroup" mask="url(#mask-6)"></path>
                    </g>
                    <g id="Group-85" transform="translate(120.000000, 101.000000)">
                        <mask id="mask-8" sketch:name="Clip 82" fill="white">
                            <use xlink:href="#path-7"></use>
                        </mask>
                        <g id="Clip-82"></g>
                        <path d="M7.065,5.083 L1.924,5.083 L1.924,9.367 C1.924,9.367 4.494,8.51 7.065,7.546 L7.065,5.083" id="Fill-81" fill="#A49289" sketch:type="MSShapeGroup" mask="url(#mask-8)"></path>
                        <path d="M1.924,5.083 L0.21,5.083 C0.21,5.594 0.573,6.054 0.981,6.368 C1.327,6.101 1.706,5.939 1.924,5.939 L1.924,5.083" id="Fill-83" fill="#A49289" sketch:type="MSShapeGroup" mask="url(#mask-8)"></path>
                        <path d="M1.924,5.939 L1.924,5.939 C1.706,5.939 1.327,6.101 0.981,6.368 C0.573,6.682 0.21,7.141 0.21,7.653 C0.21,8.6 1.45,9.367 1.924,9.367 L1.924,5.939" id="Fill-84" fill="#A49289" sketch:type="MSShapeGroup" mask="url(#mask-8)"></path>
                    </g>
                </g>
            </g>
        </g>
    </g>
</svg>