<?xml version="1.0" encoding="UTF-8" standalone="no"?>
<svg width="208px" height="53px" viewBox="0 0 208 53" version="1.1" xmlns="http://www.w3.org/2000/svg" xmlns:xlink="http://www.w3.org/1999/xlink" xmlns:sketch="http://www.bohemiancoding.com/sketch/ns">
    <!-- Generator: Sketch 3.3.3 (12081) - http://www.bohemiancoding.com/sketch -->
    <title>jQuery-Logo</title>
    <desc>Created with Sketch.</desc>
    <defs>
        <path id="path-1" d="M0.0447887324,0.188112676 L207.78762,0.188112676 L207.78762,52.9552113 L0.0447887324,52.9552113"></path>
        <path id="path-3" d="M0.0447887324,0.188112676 L207.78762,0.188112676 L207.78762,52.9552113 L0.0447887324,52.9552113"></path>
        <path id="path-5" d="M0.0447887324,0.188112676 L207.78762,0.188112676 L207.78762,52.9552113 L0.0447887324,52.9552113"></path>
        <path id="path-7" d="M0.0447887324,0.188112676 L207.78762,0.188112676 L207.78762,52.9552113 L0.0447887324,52.9552113"></path>
    </defs>
    <g id="Page-1" stroke="none" stroke-width="1" fill="none" fill-rule="evenodd" sketch:type="MSPage">
        <g id="jQuery-Logo-+-jQuery-Logo" sketch:type="MSLayerGroup">
            <g id="jQuery-Logo">
                <path d="M80.031493,47.204338 C80.0158169,47.6611831 79.9844648,48.1322113 79.9247465,48.6323521 L81.7834789,45.2627465 L81.5789437,44.1639296 L83.4451408,43.8787746 L84.1236901,48.546507 L84.9821408,45.6203099 C85.0500704,45.3344085 85.0851549,45.1209155 85.0933662,44.9066761 C85.1000845,44.6924366 85.0799296,44.4640141 85.0052817,44.1497465 L86.9595634,43.7787465 C87.0304789,44.1781127 87.0760141,44.521493 87.0640704,44.8775634 C87.0469014,45.3485915 86.9289577,45.862169 86.602,46.6332817 L85.0284225,50.8590986 L82.7016479,50.8590986 L82.2119577,47.7044789 L80.3898028,50.8590986 L78.1339437,50.8590986 C78.2227746,47.9179718 78.1160282,46.0771549 77.9122394,44.1497465 L79.8493521,43.8504085 C79.9971549,44.9208592 80.0740423,45.9913099 80.031493,47.204338" id="Fill-1" fill="#1D5E98" sketch:type="MSShapeGroup"></path>
                <path d="M92.1475915,45.5919437 C91.2458451,46.0771549 90.9114225,46.2630282 90.0947746,46.7624225 L89.2236338,50.8590986 L87.2118732,50.8590986 L88.6324225,44.0780845 L90.4127746,43.7787465 L90.3366338,44.7208028 C91.0219014,44.3214366 91.5742958,44.0355352 92.1826761,43.7787465 L92.1475915,45.5919437" id="Fill-2" fill="#1D5E98" sketch:type="MSShapeGroup"></path>
                <path d="M93.9921408,40.9943803 L96.071831,40.7099718 L95.6112535,42.8508732 L93.5457465,43.1367746 L93.9921408,40.9943803 L93.9921408,40.9943803 Z M93.3419577,44.0639014 L95.4223944,43.7787465 L93.9189859,50.8590986 L91.9072254,50.8590986 L93.3419577,44.0639014 L93.3419577,44.0639014 Z" id="Fill-3" fill="#1D5E98" sketch:type="MSShapeGroup"></path>
                <path d="M99.1279155,45.5202817 L98.3933803,48.9884225 C98.3769577,49.0600845 98.3597887,49.1317465 98.3582958,49.1742958 C98.3553099,49.2743239 98.4105493,49.3176197 98.5538732,49.3176197 C98.896507,49.3176197 99.2854225,49.1742958 99.6482113,49.0317183 L99.9983099,50.4306197 C99.4168028,50.7441408 98.58,51.0016761 97.766338,51.0016761 C96.7533662,51.0016761 96.2278451,50.5164648 96.2569577,49.6886197 C96.2599437,49.5885915 96.2786056,49.4885634 96.2957746,49.3885352 L97.1161549,45.5202817 L96.089,45.5202817 L96.4301408,43.9071408 L97.4580423,43.9071408 L97.8014225,42.2372676 L99.8803662,41.9513662 L99.4698028,43.9071408 L101.125493,43.9071408 L100.669394,45.5202817 L99.1279155,45.5202817" id="Fill-4" fill="#1D5E98" sketch:type="MSShapeGroup"></path>
                <path d="M105.187085,45.7195915 C105.195296,45.4769859 104.987028,45.3202254 104.616028,45.3202254 C103.887465,45.3202254 103.659042,45.7345211 103.539606,46.3055775 L103.437338,46.7907887 C103.782958,46.7049437 103.940465,46.6765775 104.358493,46.5474366 C104.907155,46.3906761 105.172155,46.1338873 105.187085,45.7195915 L105.187085,45.7195915 Z M101.524113,46.3906761 C101.864507,44.7917183 102.614718,43.7645634 104.813099,43.7645634 C106.125408,43.7645634 107.104789,44.3348732 107.063732,45.5060986 C107.016704,46.8624507 106.295606,47.4902394 104.565268,48.0038169 C103.713535,48.2606056 103.699352,48.2606056 103.094704,48.4181127 L102.99169,48.9033239 C102.940183,49.1601127 102.960338,49.3885352 103.331338,49.3885352 C104.059901,49.3885352 105.128859,49.0317183 106.085099,48.618169 L106.420268,50.0454366 C105.559577,50.5731972 104.217408,51.0016761 102.990197,51.0016761 C101.548746,51.0016761 100.956789,50.3738873 100.997845,49.1884789 C101.006803,48.9316901 101.046366,48.6465352 101.113549,48.3464507 L101.524113,46.3906761 L101.524113,46.3906761 Z" id="Fill-5" fill="#1D5E98" sketch:type="MSShapeGroup"></path>
                <path d="M112.256239,41.0660423 L114.33593,40.7808873 L112.214437,50.8590986 L110.20193,50.8590986 L112.256239,41.0660423" id="Fill-6" fill="#1D5E98" sketch:type="MSShapeGroup"></path>
                <path d="M118.258676,45.7195915 C118.267634,45.4769859 118.059366,45.3202254 117.688366,45.3202254 C116.959803,45.3202254 116.730634,45.7345211 116.611197,46.3055775 L116.509676,46.7907887 C116.855296,46.7049437 117.012056,46.6765775 117.430831,46.5474366 C117.978746,46.3906761 118.244493,46.1338873 118.258676,45.7195915 L118.258676,45.7195915 Z M114.596451,46.3906761 C114.936845,44.7917183 115.687056,43.7645634 117.88469,43.7645634 C119.197746,43.7645634 120.177127,44.3348732 120.13607,45.5060986 C120.089042,46.8624507 119.367944,47.4902394 117.636859,48.0038169 C116.785873,48.2606056 116.77169,48.2606056 116.167042,48.4181127 L116.064028,48.9033239 C116.012521,49.1601127 116.032676,49.3885352 116.403676,49.3885352 C117.132239,49.3885352 118.200451,49.0317183 119.15669,48.618169 L119.492606,50.0454366 C118.631169,50.5731972 117.289746,51.0016761 116.062535,51.0016761 C114.620338,51.0016761 114.02838,50.3738873 114.070183,49.1884789 C114.079141,48.9316901 114.117958,48.6465352 114.185141,48.3464507 L114.596451,46.3906761 L114.596451,46.3906761 Z" id="Fill-7" fill="#1D5E98" sketch:type="MSShapeGroup"></path>
                <path d="M120.302535,50.544831 L120.739972,49.0600845 C121.261014,49.2459577 121.854465,49.4169014 122.610648,49.4169014 C123.281732,49.4169014 123.331,49.2175915 123.399676,48.8891408 C123.467606,48.5748732 123.273521,48.4039296 122.503155,47.9896338 C121.075141,47.2185211 121.035577,46.7049437 121.258028,45.6628592 C121.581254,44.1639296 122.038099,43.7645634 123.964761,43.7645634 C124.620915,43.7645634 125.457718,43.9071408 126.022803,44.0922676 L125.640606,45.6061268 C125.131507,45.4628028 124.380549,45.3485915 123.894592,45.3485915 C123.295169,45.3485915 123.206338,45.4202535 123.121986,45.7912535 C123.054056,46.1197042 123.122732,46.1913662 123.781127,46.5474366 C125.349479,47.4043944 125.58238,47.7044789 125.344254,48.8032958 C125.003859,50.3738873 124.525366,51.0016761 122.441197,51.0016761 C121.799225,51.0016761 120.906437,50.8158028 120.302535,50.544831" id="Fill-8" fill="#1D5E98" sketch:type="MSShapeGroup"></path>
                <g id="Group-12">
                    <mask id="mask-2" sketch:name="Clip 10" fill="white">
                        <use xlink:href="#path-1"></use>
                    </mask>
                    <g id="Clip-10"></g>
                    <path d="M126.068338,50.544831 L126.505775,49.0600845 C127.026817,49.2459577 127.620268,49.4169014 128.377197,49.4169014 C129.047535,49.4169014 129.097549,49.2175915 129.166225,48.8891408 C129.234155,48.5748732 129.04007,48.4039296 128.269704,47.9896338 C126.840944,47.2185211 126.802127,46.7049437 127.024577,45.6628592 C127.347056,44.1639296 127.803901,43.7645634 129.73131,43.7645634 C130.386718,43.7645634 131.224268,43.9071408 131.788606,44.0922676 L131.407155,45.6061268 C130.898056,45.4628028 130.146352,45.3485915 129.661141,45.3485915 C129.061718,45.3485915 128.972887,45.4202535 128.888535,45.7912535 C128.820606,46.1197042 128.889282,46.1913662 129.54693,46.5474366 C131.116028,47.4043944 131.34893,47.7044789 131.110056,48.8032958 C130.769662,50.3738873 130.291915,51.0016761 128.207746,51.0016761 C127.565028,51.0016761 126.672986,50.8158028 126.068338,50.544831" id="Fill-9" fill="#1D5E98" sketch:type="MSShapeGroup" mask="url(#mask-2)"></path>
                    <path d="M131.582577,52.4147606 L132.736634,50.8590986 L131.979704,50.8590986 L132.476113,48.4897746 L134.48862,48.4897746 L133.94369,51.0300423 L132.289493,53 L131.582577,52.4147606" id="Fill-11" fill="#1D5E98" sketch:type="MSShapeGroup" mask="url(#mask-2)"></path>
                </g>
                <path d="M140.744113,48.7749296 C140.659761,49.1459296 140.753817,49.3176197 141.110634,49.3176197 C141.824268,49.3176197 142.350535,48.9458732 142.747662,48.6032394 L143.397845,45.5060986 C143.170915,45.4628028 142.90069,45.4486197 142.615535,45.4486197 C141.573451,45.4486197 141.339803,46.005493 141.188268,46.6765775 L140.744113,48.7749296 L140.744113,48.7749296 Z M142.583437,50.8590986 L142.546859,50.2596761 C142.033282,50.6732254 141.308451,51.0016761 140.308915,51.0016761 C138.796549,51.0016761 138.457648,50.0879859 138.783113,48.5323239 L139.176507,46.6623944 C139.519887,45.0067042 139.991662,43.7645634 142.917113,43.7645634 C143.131352,43.7645634 143.572521,43.7929296 143.756901,43.8362254 L144.338408,41.0660423 L146.403169,40.7808873 L144.282423,50.8590986 L142.583437,50.8590986 L142.583437,50.8590986 Z" id="Fill-13" fill="#1D5E98" sketch:type="MSShapeGroup"></path>
                <path d="M150.879056,46.2339155 C150.896972,45.7195915 150.593155,45.4486197 149.936254,45.4486197 C149.179324,45.4486197 148.723225,45.8338028 148.585873,46.5190704 L148.22607,48.2464225 C148.207408,48.3464507 148.190239,48.4464789 148.187254,48.5323239 C148.170085,49.0317183 148.473901,49.3176197 149.130803,49.3176197 C149.901169,49.3176197 150.342338,48.9316901 150.480437,48.2464225 L150.840986,46.5190704 C150.858155,46.4197887 150.87607,46.3197606 150.879056,46.2339155 L150.879056,46.2339155 Z M146.154592,48.6749014 C146.160563,48.5181408 146.181465,48.3464507 146.215803,48.1896901 L146.55769,46.5765493 C146.932423,44.7917183 147.840141,43.7645634 150.266197,43.7645634 C152.136127,43.7645634 152.940085,44.8350141 152.897535,46.0771549 C152.891563,46.2339155 152.871408,46.4056056 152.83707,46.5765493 L152.49593,48.1896901 C152.136873,49.8595634 151.297831,51.0016761 148.771746,51.0016761 C147.001845,51.0016761 146.111296,49.9454085 146.154592,48.6749014 L146.154592,48.6749014 Z" id="Fill-14" fill="#1D5E98" sketch:type="MSShapeGroup"></path>
                <path d="M165.183085,46.1338873 C165.200254,46.0480423 165.217423,45.9771268 165.218915,45.9196479 C165.223394,45.7770704 165.154718,45.7195915 164.954662,45.7195915 C164.583662,45.7195915 163.699831,46.091338 163.11907,46.3906761 L162.177761,50.8590986 L160.180183,50.8590986 L161.173,46.1338873 C161.189423,46.0480423 161.207338,45.9771268 161.208085,45.9196479 C161.21331,45.7770704 161.144634,45.7195915 160.944577,45.7195915 C160.573577,45.7195915 159.675563,46.091338 159.123169,46.376493 L158.181859,50.8590986 L156.169352,50.8590986 L157.591394,44.0780845 L159.371,43.7787465 L159.329944,44.5491127 C160.432493,44.0355352 161.298408,43.7645634 162.097887,43.7645634 C162.782408,43.7645634 163.128775,44.0639014 163.26762,44.5782254 C164.345535,43.9638732 165.309239,43.7645634 166.107972,43.7645634 C167.035845,43.7645634 167.359817,44.2923239 167.329211,45.1776479 C167.320254,45.4202535 167.296366,45.6912254 167.22993,45.9771268 L166.202775,50.8590986 L164.190268,50.8590986 L165.183085,46.1338873" id="Fill-15" fill="#1D5E98" sketch:type="MSShapeGroup"></path>
                <path d="M172.727746,46.2339155 C172.746408,45.7195915 172.441845,45.4486197 171.784944,45.4486197 C171.028761,45.4486197 170.571915,45.8338028 170.43531,46.5190704 L170.074761,48.2464225 C170.056845,48.3464507 170.039676,48.4464789 170.03669,48.5323239 C170.018775,49.0317183 170.322592,49.3176197 170.979493,49.3176197 C171.750606,49.3176197 172.191028,48.9316901 172.329873,48.2464225 L172.689676,46.5190704 C172.707592,46.4197887 172.724761,46.3197606 172.727746,46.2339155 L172.727746,46.2339155 Z M168.004028,48.6749014 C168.01,48.5181408 168.030155,48.3464507 168.064493,48.1896901 L168.40638,46.5765493 C168.781859,44.7917183 169.689577,43.7645634 172.115634,43.7645634 C173.985563,43.7645634 174.789521,44.8350141 174.746225,46.0771549 C174.740254,46.2339155 174.720099,46.4056056 174.685761,46.5765493 L174.34462,48.1896901 C173.98631,49.8595634 173.147268,51.0016761 170.621183,51.0016761 C168.851282,51.0016761 167.959986,49.9454085 168.004028,48.6749014 L168.004028,48.6749014 Z" id="Fill-16" fill="#1D5E98" sketch:type="MSShapeGroup"></path>
                <path d="M180.086535,45.5919437 C179.184789,46.0771549 178.84962,46.2630282 178.033718,46.7624225 L177.162577,50.8590986 L175.15007,50.8590986 L176.572113,44.0780845 L178.350972,43.7787465 L178.275577,44.7208028 C178.960845,44.3214366 179.513239,44.0355352 180.120873,43.7787465 L180.086535,45.5919437" id="Fill-17" fill="#1D5E98" sketch:type="MSShapeGroup"></path>
                <path d="M184.206352,45.7195915 C184.21531,45.4769859 184.007042,45.3202254 183.635296,45.3202254 C182.907479,45.3202254 182.67831,45.7345211 182.558873,46.3055775 L182.456606,46.7907887 C182.802225,46.7049437 182.959732,46.6765775 183.378507,46.5474366 C183.926423,46.3906761 184.192169,46.1338873 184.206352,45.7195915 L184.206352,45.7195915 Z M180.544127,46.3906761 C180.884521,44.7917183 181.634732,43.7645634 183.832366,43.7645634 C185.145423,43.7645634 186.124056,44.3348732 186.083746,45.5060986 C186.035972,46.8624507 185.314873,47.4902394 183.583789,48.0038169 C182.732803,48.2606056 182.719366,48.2606056 182.113972,48.4181127 L182.011704,48.9033239 C181.959451,49.1601127 181.980352,49.3885352 182.351352,49.3885352 C183.079169,49.3885352 184.148127,49.0317183 185.104366,48.618169 L185.439535,50.0454366 C184.578845,50.5731972 183.236676,51.0016761 182.010211,51.0016761 C180.568014,51.0016761 179.976056,50.3738873 180.017859,49.1884789 C180.02607,48.9316901 180.065634,48.6465352 180.132817,48.3464507 L180.544127,46.3906761 L180.544127,46.3906761 Z" id="Fill-18" fill="#1D5E98" sketch:type="MSShapeGroup"></path>
                <g id="Group-22">
                    <mask id="mask-4" sketch:name="Clip 20" fill="white">
                        <use xlink:href="#path-3"></use>
                    </mask>
                    <g id="Clip-20"></g>
                    <path d="M186.906366,48.4897746 L188.918873,48.4897746 L188.422465,50.8590986 L186.409958,50.8590986 L186.906366,48.4897746" id="Fill-19" fill="#1D5E98" sketch:type="MSShapeGroup" mask="url(#mask-4)"></path>
                    <path d="M2.44098592,10.2230282 C-0.96071831,15.1102254 -0.540450704,21.4679859 2.06252113,26.6612394 C2.12074648,26.7881408 2.18792958,26.9083239 2.25138028,27.0307465 C2.28795775,27.1098732 2.32976056,27.1897465 2.3745493,27.2673803 C2.39395775,27.3106761 2.42456338,27.3577042 2.44919718,27.4002535 C2.491,27.4846056 2.53578873,27.5629859 2.58057746,27.6436056 C2.6641831,27.7846901 2.74778873,27.9280141 2.83064789,28.0676056 C2.87842254,28.1452394 2.92321127,28.2236197 2.97621127,28.3012535 C3.06504225,28.4520423 3.16805634,28.6005915 3.26061972,28.7513803 C3.30167606,28.8155775 3.34123944,28.8782817 3.38602817,28.9409859 C3.51890141,29.1440282 3.65326761,29.344831 3.80107042,29.5426479 C3.80107042,29.5486197 3.80629577,29.5538451 3.81152113,29.5560845 C3.83391549,29.5896761 3.85929577,29.6217746 3.88169014,29.6523803 C4.00709859,29.8240704 4.13250704,29.9912817 4.26314085,30.157 C4.30792958,30.2182113 4.35794366,30.2794225 4.40273239,30.3391408 C4.52216901,30.4839577 4.6393662,30.6287746 4.75656338,30.7728451 C4.80135211,30.8236056 4.84539437,30.8788451 4.89316901,30.9318451 C5.0491831,31.1192113 5.21340845,31.305831 5.38061972,31.4902113 C5.38061972,31.4924507 5.38584507,31.4969296 5.38883099,31.5014085 C5.39480282,31.5081268 5.40002817,31.5148451 5.41122535,31.5223099 C5.57246479,31.6992254 5.73743662,31.8731549 5.90464789,32.0455915 C5.95690141,32.0985915 6.00990141,32.1500986 6.06887324,32.2060845 C6.19652113,32.3359718 6.32491549,32.4666056 6.46152113,32.595 C6.51750704,32.648 6.57274648,32.699507 6.62574648,32.7510141 C6.80415493,32.9182254 6.98256338,33.0854366 7.1691831,33.2451831 C7.17216901,33.248169 7.17515493,33.249662 7.17739437,33.2519014 C7.208,33.2787746 7.24159155,33.3056479 7.26995775,33.3317746 C7.43343662,33.4721127 7.59840845,33.6117042 7.76561972,33.7498028 C7.83280282,33.8057887 7.89923944,33.8580423 7.96642254,33.9125352 C8.10526761,34.0230141 8.24485915,34.1282676 8.38370423,34.2342676 C8.45685915,34.2887606 8.52926761,34.3447465 8.60391549,34.4014789 C8.75470423,34.5141972 8.91071831,34.6246761 9.06374648,34.7329155 C9.11973239,34.7739718 9.17497183,34.8142817 9.23394366,34.8516056 C9.24812676,34.8635493 9.2645493,34.875493 9.27873239,34.8866901 C9.43176056,34.9867183 9.57657746,35.084507 9.7273662,35.1830423 C9.79380282,35.226338 9.858,35.2681408 9.92219718,35.3114366 C10.1558451,35.4599859 10.3902394,35.6040563 10.6216479,35.7429014 C10.6880845,35.7779859 10.7552676,35.8160563 10.8194648,35.8533803 C10.9919014,35.9534085 11.1673239,36.0526901 11.3457324,36.147493 C11.4435211,36.2019859 11.5405634,36.2490141 11.641338,36.2990282 C11.7607746,36.3647183 11.8861831,36.4311549 12.0145775,36.4968451 C12.0451831,36.5095352 12.0757887,36.5207324 12.1034085,36.535662 C12.1564085,36.5595493 12.207169,36.5864225 12.2564366,36.6110563 C12.4520141,36.7073521 12.6528169,36.7976761 12.8588451,36.889493 C12.897662,36.9081549 12.9394648,36.9245775 12.9812676,36.9454789 C13.2126761,37.045507 13.4440845,37.1418028 13.6807183,37.2351127 C13.7367042,37.2560141 13.7919437,37.2813944 13.8509155,37.3008028 C14.0651549,37.3844085 14.2883521,37.4665211 14.5085634,37.5456479 C14.5361831,37.5575915 14.5608169,37.5658028 14.5891831,37.5747606 C14.8340282,37.6591127 15.0766338,37.7382394 15.3244648,37.8151268 C15.3826901,37.8315493 15.441662,37.8524507 15.5028732,37.8681268 C15.7566761,37.9442676 16.0015211,38.0338451 16.2605493,38.0823662 C32.7077183,41.0802254 37.4859296,28.1982394 37.4859296,28.1982394 C33.4713662,33.4235915 26.3469718,34.8045775 19.5988028,33.2690704 C19.3479859,33.212338 19.1001549,33.1324648 18.8463521,33.0570704 C18.7873803,33.0406479 18.7209437,33.0212394 18.6619718,33.000338 C18.4171268,32.9264366 18.1752676,32.8465634 17.9378873,32.7659437 C17.9042958,32.7547465 17.8684648,32.7428028 17.8348732,32.7286197 C17.6206338,32.6547183 17.4086338,32.5740986 17.1973803,32.4919859 C17.1384085,32.4666056 17.0771972,32.4457042 17.0182254,32.4233099 C16.7845775,32.331493 16.553169,32.2329577 16.3277324,32.1336761 C16.2777183,32.1157606 16.235169,32.0948592 16.1881408,32.0754507 C15.9903239,31.9843803 15.8007183,31.8955493 15.6088732,31.8029859 C15.5499014,31.7783521 15.4976479,31.7507324 15.4386761,31.7216197 C15.2878873,31.6499577 15.1378451,31.570831 14.9900423,31.4924507 C14.8870282,31.4401972 14.787,31.3909296 14.6892113,31.3371831 C14.5085634,31.2393944 14.327169,31.1363803 14.1457746,31.0363521 C14.0897887,30.9982817 14.0285775,30.9661831 13.9643803,30.9318451 C13.7307324,30.7922535 13.4940986,30.6489296 13.2626901,30.5011268 C13.1962535,30.4593239 13.1342958,30.4167746 13.0730845,30.3742254 C12.9036338,30.2667324 12.7364225,30.1540141 12.5714507,30.0427887 C12.5184507,30.0047183 12.4661972,29.9659014 12.4102113,29.9270845 C12.2512113,29.8151127 12.0951972,29.7031408 11.9369437,29.5866901 C11.8697606,29.5336901 11.800338,29.4814366 11.7271831,29.4284366 C11.5853521,29.3179577 11.4435211,29.2097183 11.3016901,29.095507 C11.2397324,29.044 11.1762817,28.9932394 11.1143239,28.9432254 C10.9306901,28.796169 10.7582535,28.6476197 10.5820845,28.4945915 C10.565662,28.4766761 10.5410282,28.461 10.5208732,28.4460704 C10.3342535,28.2788592 10.1476338,28.1079155 9.964,27.9377183 C9.90801408,27.8847183 9.86098592,27.8361972 9.805,27.7854366 C9.67138028,27.6548028 9.53776056,27.5264085 9.40712676,27.3942817 C9.35114085,27.3390423 9.30038028,27.2867887 9.24812676,27.2337887 C9.08091549,27.0650845 8.91594366,26.8911549 8.75470423,26.713493 C8.74649296,26.7060282 8.73828169,26.6978169 8.72932394,26.6881127 C8.55987324,26.501493 8.39564789,26.3118873 8.23067606,26.1192958 C8.18588732,26.0677887 8.14483099,26.0147887 8.10004225,25.9647746 C7.97985915,25.8169718 7.86042254,25.6684225 7.738,25.5206197 C7.69843662,25.4631408 7.65364789,25.4093944 7.60960563,25.3534085 C7.46702817,25.1705211 7.33116901,24.9883803 7.19456338,24.8002676 C3.44947887,19.6913662 2.09835211,12.6416197 5.09397183,6.85566197" id="Fill-21" fill="#1D5E98" sketch:type="MSShapeGroup" mask="url(#mask-4)"></path>
                </g>
                <path d="M13.0006761,6.10321127 C10.5350563,9.64226761 10.671662,14.380169 12.5916056,18.124507 C12.9088592,18.7515493 13.2709014,19.3606761 13.6777324,19.9384507 C14.0457465,20.4677042 14.4525775,21.0947465 14.9452535,21.519493 C15.1184366,21.7143239 15.3050563,21.9039296 15.4976479,22.0950282 C15.5446761,22.1420563 15.5924507,22.188338 15.6424648,22.2383521 C15.8260986,22.4152676 16.0127183,22.5891972 16.2045634,22.7593944 C16.2105352,22.7668592 16.2217324,22.7735775 16.2277042,22.7802958 C16.2299437,22.7817887 16.2329296,22.7840282 16.2329296,22.7840282 C16.447169,22.9736338 16.6651408,23.1535352 16.8905775,23.3289577 C16.9435775,23.3670282 16.9906056,23.408831 17.0436056,23.4461549 C17.2668028,23.620831 17.4952254,23.7872958 17.7266338,23.9515211 C17.7348451,23.954507 17.7400704,23.9604789 17.7512676,23.9649577 C17.8520423,24.0366197 17.9572958,24.1038028 18.0662817,24.1732254 C18.1133099,24.203831 18.1633239,24.2404085 18.2110986,24.2695211 C18.3805493,24.38 18.548507,24.4822676 18.7209437,24.5845352 C18.7463239,24.5972254 18.7709577,24.610662 18.796338,24.6233521 C18.9411549,24.7114366 19.0941831,24.7972817 19.2479577,24.875662 C19.3002113,24.9077606 19.3532113,24.9323944 19.4062113,24.961507 C19.5122113,25.014507 19.6182113,25.070493 19.7212254,25.1249859 C19.734662,25.1317042 19.7548169,25.1399155 19.7712394,25.1473803 C19.9884648,25.2548732 20.2086761,25.3534085 20.4259014,25.4526901 C20.4789014,25.4735915 20.5236901,25.491507 20.5737042,25.5124085 C20.7521127,25.5885493 20.9327606,25.6639437 21.1119155,25.7326197 C21.1925352,25.7587465 21.2679296,25.7908451 21.3425775,25.8169718 C21.5068028,25.8759437 21.6747606,25.9326761 21.8389859,25.987169 C21.9196056,26.0140423 21.9920141,26.0356901 22.0644225,26.0595775 C22.2988169,26.1334789 22.5354507,26.2282817 22.7832817,26.2670986 C35.4771549,28.372169 38.4138028,18.5940423 38.4138028,18.5940423 C35.7697746,22.4025775 30.6519155,24.2165211 25.1906761,22.7989577 C24.9450845,22.7362535 24.7062113,22.6660845 24.4718169,22.5891972 C24.3964225,22.5697887 24.3299859,22.5466479 24.2575775,22.5212676 C24.0873803,22.4667746 23.9171831,22.4100423 23.7529577,22.3480845 C23.6775634,22.3204648 23.5999296,22.2928451 23.5245352,22.2637324 C23.3431408,22.1920704 23.162493,22.1226479 22.9863239,22.0450141 C22.9340704,22.0233662 22.8833099,22.0054507 22.8422535,21.9838028 C22.6160704,21.8860141 22.3928732,21.781507 22.1756479,21.677 C22.0644225,21.6195211 21.9561831,21.5642817 21.8442113,21.5060563 C21.7777746,21.4724648 21.7135775,21.4403662 21.6546056,21.4097606 C21.5068028,21.3328732 21.3701972,21.2522535 21.2313521,21.1701408 C21.1977606,21.1514789 21.164169,21.1350563 21.1313239,21.1156479 C20.9611268,21.0126338 20.7857042,20.9096197 20.6237183,20.8021268 C20.5684789,20.7700282 20.5207042,20.7334507 20.4677042,20.7006056 C20.3564789,20.6296901 20.247493,20.5587746 20.1332817,20.4818873 C19.9026197,20.3213944 19.6764366,20.1519437 19.451,19.9817465 C19.398,19.9384507 19.3479859,19.8996338 19.2979718,19.857831 C16.9017746,17.9714789 15.0064648,15.3916479 14.1099437,12.4699296 C13.162662,9.43549296 13.3716761,6.02930986 15.0042254,3.26659155" id="Fill-23" fill="#1D5E98" sketch:type="MSShapeGroup"></path>
                <path d="M21.8778028,3.02622535 C20.423662,5.16040845 20.2840704,7.81115493 21.287338,10.1655493 C22.3510704,12.6677465 24.5270563,14.6309859 27.0628451,15.5596056 C27.1658592,15.5999155 27.2688732,15.633507 27.3748732,15.6700845 C27.4226479,15.6835211 27.4666901,15.6991972 27.5174507,15.7141268 C27.6652535,15.7604085 27.8123099,15.8163944 27.965338,15.845507 C34.978507,17.1996197 36.8790423,12.2467324 37.3888873,11.518169 C35.7197606,13.9173521 32.9197183,14.4921408 29.4844225,13.6583239 C29.2141972,13.5926338 28.9185915,13.4955915 28.6565775,13.4007887 C28.3221549,13.2820986 27.9907183,13.144 27.667493,12.9924648 C27.0628451,12.6983521 26.4776056,12.3445211 25.9371549,11.9347042 C22.8609155,9.60270423 20.9559014,5.15443662 22.9616901,1.53102817" id="Fill-24" fill="#1D5E98" sketch:type="MSShapeGroup"></path>
                <path d="M184.376549,13.0238169 L184.652,14.185338 C184.729634,14.5182676 184.51838,14.7877465 184.177986,14.7877465" id="Fill-25" fill="#2E2E2C" sketch:type="MSShapeGroup"></path>
                <path d="M162.253155,11.0284789 C162.183732,11.3509577 162.100127,11.7570423 162.044887,12.0265211 L159.618085,23.3841972 L162.170296,11.4188873 L162.253155,11.0284789" id="Fill-26" fill="#2E2E2C" sketch:type="MSShapeGroup"></path>
                <path d="M89.5498451,18.6298732 L88.209169,23.3759859 L89.5498451,18.6306197 L89.5498451,18.6298732" id="Fill-27" fill="#2E2E2C" sketch:type="MSShapeGroup"></path>
                <g id="Group-31">
                    <mask id="mask-6" sketch:name="Clip 29" fill="white">
                        <use xlink:href="#path-5"></use>
                    </mask>
                    <g id="Clip-29"></g>
                    <path d="M184.652,14.185338 L183.952549,11.2285352 C183.400901,9.08838028 181.837775,8.07690141 178.324845,8.07690141 L163.549042,8.07690141 C163.208648,8.07690141 162.869,8.22992958 162.799577,8.56285915 L157.194268,35.1479577 C157.121113,35.4846197 157.099465,35.723493 157.137535,35.8899577 C157.177099,36.0609014 157.834746,36.0288028 158.171408,36.0288028 L163.290014,36.0288028 C163.632648,36.0288028 164.254465,36.0541831 164.435113,35.9817746 C164.624718,35.9033944 164.708324,35.3965352 164.777746,35.0613662 L166.586465,25.7400845 L168.796042,15.4006056 C168.867704,15.069169 169.202127,14.7974507 169.542521,14.7974507 L184.177986,14.7877465 C184.515394,14.7877465 184.729634,14.5175211 184.652,14.185338" id="Fill-28" fill="#2E2E2C" sketch:type="MSShapeGroup" mask="url(#mask-6)"></path>
                    <path d="M205.472042,3.40842254 C205.129408,3.41215493 198.981408,3.40842254 198.981408,3.40842254 C198.641761,3.40842254 198.204324,3.7734507 198.014718,4.05487324 L186.621211,20.8170563 C186.427127,21.0984789 186.206915,21.0880282 186.131521,20.757338 L185.289493,17.083169 C185.217831,16.7502394 184.878183,16.4785211 184.532563,16.4785211 L177.209606,16.4785211 C176.872944,16.4785211 176.669155,16.7599437 176.758732,17.0891408 L180.041,28.5968592 C180.135803,28.9260563 180.144014,29.4642676 180.059662,29.7942113 L178.52938,35.6227183 C178.448014,35.952662 178.657028,36.0526901 179.002648,36.0526901 L186.233042,36.0526901 C186.57269,36.0526901 186.924282,35.9549014 187.007141,35.6227183 L188.538915,29.7120986 C188.622521,29.3829014 188.859155,28.9342676 189.062197,28.6595634 L207.656239,4.00038028 C207.865254,3.73015493 207.835394,3.4061831 207.495746,3.4061831 L205.472042,3.40842254" id="Fill-30" fill="#2E2E2C" sketch:type="MSShapeGroup" mask="url(#mask-6)"></path>
                </g>
                <path d="M129.231169,8.09929577 L122.621845,8.09929577 C122.285183,8.09929577 121.939563,8.21798592 121.87238,8.55240845 L119.688183,18.7724507 L117.512197,28.5587887 C117.442775,28.8909718 117.105366,28.867831 116.764972,28.867831 L112.421958,28.867831 C108.125225,28.867831 108.620887,26.1536338 109.504718,22.083831 C109.515169,22.0435211 112.259972,8.55240845 112.259972,8.55240845 C112.321183,8.21947887 112.097986,8.09929577 111.761324,8.09929577 L105.464775,8.09929577 C105.125127,8.09929577 104.786972,8.21947887 104.721282,8.55240845 L102.187732,22.0741268 C100.92469,29.3858873 100.88662,35.8190423 109.365127,36.0310423 C109.504718,36.0362676 122.753225,36.0310423 122.753225,36.0310423 C123.095859,36.0310423 123.432521,35.9190704 123.505676,35.5891268 L126.380366,22.0285915 L129.244606,8.41132394 C129.244606,8.41132394 129.346127,8.09929577 129.231169,8.09929577" id="Fill-32" fill="#2E2E2C" sketch:type="MSShapeGroup"></path>
                <path d="M63.4036761,8.07690141 L56.3180986,8.07690141 C55.9784507,8.07690141 55.6358169,8.15752113 55.5604225,8.49194366 L54.2817042,14.0240986 C54.2092958,14.3518028 54.4265211,14.6130704 54.7691549,14.6130704 L61.5531549,14.6130704 C61.8965352,14.6130704 62.2361831,14.3040282 62.3085915,13.9740845 L63.5402817,8.40012676 C63.5402817,8.40012676 63.6380704,8.07690141 63.4036761,8.07690141" id="Fill-33" fill="#2E2E2C" sketch:type="MSShapeGroup"></path>
                <path d="M54.3093239,16.4785211 C53.972662,16.4785211 53.6270423,16.748 53.5546338,17.0801831 L52.5983944,21.3000282 L50.4671972,31.0445634 C50.4671972,31.0445634 49.3332958,36.2251268 49.2243099,36.5490986 C49.2243099,36.5490986 48.2695634,40.2897042 45.9883239,40.139662 C44.926831,40.069493 43.7138028,39.8261408 43.7138028,39.8261408 L43.7108169,39.8261408 C43.0725775,39.6335493 43.0277887,40.2956761 42.9501549,40.6263662 L41.5430423,46.6974789 C41.4616761,47.029662 41.6796479,47.329 42.0170563,47.3334789 C42.0170563,47.3334789 45.067169,47.7634507 47.221507,47.7634507 L47.575338,47.7634507 C52.8969859,47.7634507 55.7082254,44.6342113 57.505,36.1385352 L59.6115634,26.3044225 L61.5867465,17.1540845 C61.6599014,16.8211549 61.4583521,16.5121127 61.1187042,16.5121127" id="Fill-34" fill="#2E2E2C" sketch:type="MSShapeGroup"></path>
                <g id="Group-38">
                    <mask id="mask-8" sketch:name="Clip 36" fill="white">
                        <use xlink:href="#path-7"></use>
                    </mask>
                    <g id="Clip-36"></g>
                    <path d="M149.095718,19.7324225 C149.095718,20.1019296 147.928972,20.0310141 147.928972,20.0310141 L138.637549,19.963831 C138.316563,19.963831 138.224746,19.5137042 138.202352,19.1919718 C138.201606,19.1807746 138.225493,18.8060423 138.253113,18.7127324 C138.971225,16.2217324 141.114366,14.7981972 144.510845,14.7981972 C148.332817,14.7981972 149.149465,16.6942535 149.149465,18.796338 M145.953789,8.03584507 C134.034761,8.03584507 131.18993,15.4028451 129.607394,22.7041549 C128.024113,30.1487887 128.159225,36.0332817 140.491803,36.0332817 L140.936704,36.0332817 L151.774085,36.0332817 C152.107761,36.0273099 152.442183,35.7212535 152.509366,35.3913099 L153.721648,30.668338 C153.791817,30.3339155 153.565634,30.2353803 153.228972,30.2353803 L142.137042,30.2353803 C138.119493,30.2353803 136.681028,28.9977183 136.821366,26.2193239 C136.81838,25.9028169 137.180423,25.0973662 137.52007,25.0973662 L154.605479,25.0973662 C155.35569,25.0936338 155.379577,24.6547042 155.379577,24.6547042 C157.118873,16.8047324 157.232338,8.03584507 145.953789,8.03584507" id="Fill-35" fill="#2E2E2C" sketch:type="MSShapeGroup" mask="url(#mask-8)"></path>
                    <path d="M88.1457183,23.3759859 L86.7721972,28.0705915 C86.6773944,28.3997887 86.2899718,28.6192535 85.9495775,28.6192535 L78.864,28.6192535 C73.4871127,28.6192535 72.1800282,24.4636056 73.4871127,18.2633521 C74.7994225,11.925 77.3994085,8.003 82.6874648,7.60587324 C89.9178592,7.06094366 91.3973803,12.1668592 89.6446479,18.0364225 L88.1457183,23.3759859 L88.1457183,23.3759859 Z M94.4422676,28.3505211 C94.4422676,28.3505211 97.7805211,20.2415211 98.5374507,15.5551268 C99.5743099,9.28321127 96.4368592,0.187366197 84.305831,0.187366197 C72.2472113,0.187366197 67.0143944,8.87115493 65.0115915,18.3118732 C63.0162535,27.8212676 65.6281831,36.1004648 77.6203662,36.0332817 L95.9240282,36.0220845 C96.2614366,36.0205915 96.6130282,35.7481268 96.6996197,35.4234085 L98.2425915,29.5478732 C98.3261972,29.2156901 98.1171831,28.9469577 97.7745493,28.9454648 L96.3002535,28.9342676 L94.8267042,28.9275493 C94.5370704,28.9253099 94.3698592,28.7364507 94.4086761,28.4878732 C94.4139014,28.442338 94.4198732,28.3975493 94.4422676,28.3505211 L94.4422676,28.3505211 Z" id="Fill-37" fill="#2E2E2C" sketch:type="MSShapeGroup" mask="url(#mask-8)"></path>
                </g>
            </g>
        </g>
    </g>
</svg>