<?xml version="1.0" encoding="UTF-8" standalone="no"?>
<svg width="162px" height="163px" viewBox="0 0 162 163" version="1.1" xmlns="http://www.w3.org/2000/svg" xmlns:xlink="http://www.w3.org/1999/xlink" xmlns:sketch="http://www.bohemiancoding.com/sketch/ns">
    <!-- Generator: Sketch 3.3.3 (12081) - http://www.bohemiancoding.com/sketch -->
    <title>Imported Layers</title>
    <desc>Created with Sketch.</desc>
    <defs>
        <path id="path-1" d="M95.311,0.309 L6.621,0.309 C3.128,0.309 0.286,3.151 0.286,6.644 L0.286,65.242 C0.286,68.735 3.128,71.577 6.621,71.577 L37.504,71.577 L35.921,79.496 C33.301,79.496 31.169,81.627 31.169,84.247 L31.169,88.998 L70.763,88.998 L70.763,84.247 C70.763,81.627 68.632,79.496 66.011,79.496 L64.428,71.577 L95.311,71.577 C98.804,71.577 101.646,68.735 101.646,65.242 L101.646,6.644 C101.646,3.151 98.804,0.309 95.311,0.309"></path>
        <path id="path-3" d="M23.844,8.496 L0.088,8.496 L1.672,0.577 L22.26,0.577 L23.844,8.496"></path>
        <path id="path-5" d="M95.311,0.309 L6.621,0.309 C3.128,0.309 0.286,3.151 0.286,6.644 L0.286,65.242 C0.286,68.735 3.128,71.577 6.621,71.577 L37.504,71.577 L35.921,79.496 C33.301,79.496 31.169,81.627 31.169,84.247 L31.169,88.998 L70.763,88.998 L70.763,84.247 C70.763,81.627 68.632,79.496 66.011,79.496 L64.428,71.577 L95.311,71.577 C98.804,71.577 101.646,68.735 101.646,65.242 L101.646,6.644 C101.646,3.151 98.804,0.309 95.311,0.309"></path>
        <path id="path-7" d="M93.478,65.409 L2.454,65.409 C1.354,65.409 0.454,64.51 0.454,63.409 L0.454,2.476 C0.454,1.376 1.354,0.476 2.454,0.476 L93.478,0.476 C94.578,0.476 95.478,1.376 95.478,2.476 L95.478,63.409 C95.478,64.51 94.578,65.409 93.478,65.409"></path>
        <path id="path-9" d="M95.311,0.309 L6.621,0.309 C3.128,0.309 0.286,3.151 0.286,6.644 L0.286,65.242 C0.286,68.735 3.128,71.577 6.621,71.577 L37.504,71.577 L35.921,79.496 C33.301,79.496 31.169,81.627 31.169,84.247 L31.169,88.998 L70.763,88.998 L70.763,84.247 C70.763,81.627 68.632,79.496 66.011,79.496 L64.428,71.577 L95.311,71.577 C98.804,71.577 101.646,68.735 101.646,65.242 L101.646,6.644 C101.646,3.151 98.804,0.309 95.311,0.309"></path>
        <path id="path-11" d="M0.337,3.83 L0.337,2.247 C0.337,1.376 1.049,0.663 1.921,0.663 L32.011,0.663 C32.883,0.663 33.595,1.376 33.595,2.247 L33.595,3.83 L0.337,3.83"></path>
    </defs>
    <g id="Welcome" stroke="none" stroke-width="1" fill="none" fill-rule="evenodd" sketch:type="MSPage">
        <g id="Desktop" sketch:type="MSArtboardGroup" transform="translate(-432.000000, -1033.000000)">
            <g id="Imported-Layers-+-Imported-Layers-+-Imported-Layers" sketch:type="MSLayerGroup" transform="translate(166.000000, 1033.000000)">
                <g id="Imported-Layers" transform="translate(266.000000, 0.000000)">
                    <path d="M127.255,38.099 L161.195,81.744 L161.201,81.547 C161.201,37.035 125.119,0.954 80.611,0.954 C36.102,0.954 0.019,37.035 0.019,81.547 C0.019,124.348 33.39,159.336 75.527,161.965 L33.534,105.908 L127.255,38.099" id="Fill-1" fill="#B64D13" sketch:type="MSShapeGroup"></path>
                    <path d="M161.195,81.744 L127.255,38.099 L33.534,105.908 L75.527,161.965 C77.21,162.068 78.901,162.141 80.611,162.141 C125.054,162.141 161.09,126.16 161.195,81.744" id="Fill-2" fill="#893A0F" sketch:type="MSShapeGroup"></path>
                    <g id="Group-6" transform="translate(27.000000, 35.000000)">
                        <mask id="mask-2" sketch:name="Clip 4" fill="white">
                            <use xlink:href="#path-1"></use>
                        </mask>
                        <g id="Clip-4"></g>
                        <path d="M66.011,79.496 L35.921,79.496 L37.504,71.577 L64.428,71.577 L66.011,79.496" id="Fill-3" fill="#45413E" sketch:type="MSShapeGroup" mask="url(#mask-2)"></path>
                        <path d="M62.844,79.496 L39.088,79.496 L40.672,71.577 L61.26,71.577 L62.844,79.496" id="Fill-5" fill="#C7C2C2" sketch:type="MSShapeGroup" mask="url(#mask-2)"></path>
                    </g>
                    <g id="Group-9" transform="translate(66.000000, 106.000000)">
                        <mask id="mask-4" sketch:name="Clip 8" fill="white">
                            <use xlink:href="#path-3"></use>
                        </mask>
                        <g id="Clip-8"></g>
                        <path d="M22.26,0.577 L1.672,0.577 L1.038,3.744 L22.894,3.744 L22.26,0.577" id="Fill-7" fill="#979494" sketch:type="MSShapeGroup" mask="url(#mask-4)"></path>
                    </g>
                    <g id="Group-20" transform="translate(27.000000, 35.000000)">
                        <mask id="mask-6" sketch:name="Clip 11" fill="white">
                            <use xlink:href="#path-5"></use>
                        </mask>
                        <g id="Clip-11"></g>
                        <path d="M6.621,71.577 C3.128,71.577 0.286,68.735 0.286,65.242 L0.286,6.644 C0.286,3.151 3.128,0.309 6.621,0.309 L95.311,0.309 C98.804,0.309 101.646,3.151 101.646,6.644 L101.646,65.242 C101.646,68.735 98.804,71.577 95.311,71.577 L6.621,71.577" id="Fill-10" fill="#45413E" sketch:type="MSShapeGroup" mask="url(#mask-6)"></path>
                        <path d="M96.478,68.409 L5.454,68.409 C4.354,68.409 3.454,67.51 3.454,66.409 L3.454,5.476 C3.454,4.376 4.354,3.476 5.454,3.476 L96.478,3.476 C97.578,3.476 98.478,4.376 98.478,5.476 L98.478,66.409 C98.478,67.51 97.578,68.409 96.478,68.409" id="Fill-12" fill="#ECECEC" sketch:type="MSShapeGroup" mask="url(#mask-6)"></path>
                        <path d="M3.454,57.323 L3.454,6.644 C3.454,4.902 4.879,3.476 6.621,3.476 L95.311,3.476 C97.053,3.476 98.478,4.902 98.478,6.644 L98.478,57.323 L3.454,57.323" id="Fill-13" fill="#45413E" sketch:type="MSShapeGroup" mask="url(#mask-6)"></path>
                        <path d="M6.621,6.644 L95.31,6.644 L95.31,57.324 L6.621,57.324 L6.621,6.644 Z" id="Fill-14" fill="#45413E" sketch:type="MSShapeGroup" mask="url(#mask-6)"></path>
                        <path d="M53.342,62.866 C53.342,64.178 52.278,65.242 50.966,65.242 C49.654,65.242 48.59,64.178 48.59,62.866 C48.59,61.554 49.654,60.491 50.966,60.491 C52.278,60.491 53.342,61.554 53.342,62.866" id="Fill-15" fill="#45413E" sketch:type="MSShapeGroup" mask="url(#mask-6)"></path>
                        <path d="M86.6,3.476 L77.098,3.476 L73.93,6.644 L83.433,6.644 L86.6,3.476" id="Fill-16" fill="#524E4B" sketch:type="MSShapeGroup" mask="url(#mask-6)"></path>
                        <path d="M83.433,6.644 L73.93,6.644 L26.418,54.156 L35.921,54.156 L83.433,6.644" id="Fill-17" fill="#524E4B" sketch:type="MSShapeGroup" mask="url(#mask-6)"></path>
                        <path d="M69.179,3.476 L66.011,3.476 L62.844,6.644 L66.012,6.644 L69.179,3.476" id="Fill-18" fill="#524E4B" sketch:type="MSShapeGroup" mask="url(#mask-6)"></path>
                        <path d="M66.012,6.644 L62.844,6.644 L15.332,54.156 L18.499,54.156 L66.012,6.644" id="Fill-19" fill="#524E4B" sketch:type="MSShapeGroup" mask="url(#mask-6)"></path>
                    </g>
                    <g id="Group-23" transform="translate(30.000000, 38.000000)">
                        <mask id="mask-8" sketch:name="Clip 22" fill="white">
                            <use xlink:href="#path-7"></use>
                        </mask>
                        <g id="Clip-22"></g>
                        <path d="M95.434,63.826 L0.498,63.826 C0.69,64.728 1.496,65.409 2.454,65.409 L93.478,65.409 C94.436,65.409 95.242,64.728 95.434,63.826" id="Fill-21" fill="#B3B3B3" sketch:type="MSShapeGroup" mask="url(#mask-8)"></path>
                    </g>
                    <g id="Group-27" transform="translate(27.000000, 35.000000)">
                        <mask id="mask-10" sketch:name="Clip 25" fill="white">
                            <use xlink:href="#path-9"></use>
                        </mask>
                        <g id="Clip-25"></g>
                        <path d="M31.169,88.998 L31.169,84.247 C31.169,81.627 33.301,79.496 35.921,79.496 L66.011,79.496 C68.632,79.496 70.763,81.627 70.763,84.247 L70.763,88.998 L31.169,88.998" id="Fill-24" fill="#45413E" sketch:type="MSShapeGroup" mask="url(#mask-10)"></path>
                        <path d="M34.337,85.83 L34.337,84.247 C34.337,83.376 35.049,82.663 35.921,82.663 L66.011,82.663 C66.883,82.663 67.595,83.376 67.595,84.247 L67.595,85.83 L34.337,85.83" id="Fill-26" fill="#ECECEC" sketch:type="MSShapeGroup" mask="url(#mask-10)"></path>
                    </g>
                    <g id="Group-30" transform="translate(61.000000, 117.000000)">
                        <mask id="mask-12" sketch:name="Clip 29" fill="white">
                            <use xlink:href="#path-11"></use>
                        </mask>
                        <g id="Clip-29"></g>
                        <path d="M32.011,0.663 L1.921,0.663 C1.049,0.663 0.337,1.376 0.337,2.247 L33.595,2.247 C33.595,1.376 32.883,0.663 32.011,0.663" id="Fill-28" fill="#FBFBFB" sketch:type="MSShapeGroup" mask="url(#mask-12)"></path>
                    </g>
                </g>
            </g>
        </g>
    </g>
</svg>